  0
SECTION
  2
HEADER
  9
$ACADVER
  1
AC1032
  9
$ACADMAINTVER
 90
4
  9
$DWGCODEPAGE
  3
ANSI_1252
  9
$LASTSAVEDBY
  1
ezdxf
  9
$REQUIREDVERSIONS
160
0
  9
$INSBASE
 10
0.0
 20
0.0
 30
0.0
  9
$EXTMIN
 10
1e+20
 20
1e+20
 30
1e+20
  9
$EXTMAX
 10
-1e+20
 20
-1e+20
 30
-1e+20
  9
$LIMMIN
 10
0.0
 20
0.0
  9
$LIMMAX
 10
420.0
 20
297.0
  9
$ORTHOMODE
 70
0
  9
$REGENMODE
 70
1
  9
$FILLMODE
 70
1
  9
$QTEXTMODE
 70
0
  9
$MIRRTEXT
 70
1
  9
$LTSCALE
 40
1.0
  9
$ATTMODE
 70
1
  9
$TEXTSIZE
 40
2.5
  9
$TRACEWID
 40
1.0
  9
$TEXTSTYLE
  7
Standard
  9
$CLAYER
  8
0
  9
$CELTYPE
  6
ByLayer
  9
$CECOLOR
 62
256
  9
$CELTSCALE
 40
1.0
  9
$DISPSILH
 70
0
  9
$DIMSCALE
 40
1.0
  9
$DIMASZ
 40
2.5
  9
$DIMEXO
 40
0.625
  9
$DIMDLI
 40
3.75
  9
$DIMRND
 40
0.0
  9
$DIMDLE
 40
0.0
  9
$DIMEXE
 40
1.25
  9
$DIMTP
 40
0.0
  9
$DIMTM
 40
0.0
  9
$DIMTXT
 40
2.5
  9
$DIMCEN
 40
2.5
  9
$DIMTSZ
 40
0.0
  9
$DIMTOL
 70
0
  9
$DIMLIM
 70
0
  9
$DIMTIH
 70
0
  9
$DIMTOH
 70
0
  9
$DIMSE1
 70
0
  9
$DIMSE2
 70
0
  9
$DIMTAD
 70
1
  9
$DIMZIN
 70
8
  9
$DIMBLK
  1

  9
$DIMASO
 70
1
  9
$DIMSHO
 70
1
  9
$DIMPOST
  1

  9
$DIMAPOST
  1

  9
$DIMALT
 70
0
  9
$DIMALTD
 70
3
  9
$DIMALTF
 40
0.03937007874
  9
$DIMLFAC
 40
1.0
  9
$DIMTOFL
 70
1
  9
$DIMTVP
 40
0.0
  9
$DIMTIX
 70
0
  9
$DIMSOXD
 70
0
  9
$DIMSAH
 70
0
  9
$DIMBLK1
  1

  9
$DIMBLK2
  1

  9
$DIMSTYLE
  2
ISO-25
  9
$DIMCLRD
 70
0
  9
$DIMCLRE
 70
0
  9
$DIMCLRT
 70
0
  9
$DIMTFAC
 40
1.0
  9
$DIMGAP
 40
0.625
  9
$DIMJUST
 70
0
  9
$DIMSD1
 70
0
  9
$DIMSD2
 70
0
  9
$DIMTOLJ
 70
0
  9
$DIMTZIN
 70
8
  9
$DIMALTZ
 70
0
  9
$DIMALTTZ
 70
0
  9
$DIMUPT
 70
0
  9
$DIMDEC
 70
2
  9
$DIMTDEC
 70
2
  9
$DIMALTU
 70
2
  9
$DIMALTTD
 70
3
  9
$DIMTXSTY
  7
Standard
  9
$DIMAUNIT
 70
0
  9
$DIMADEC
 70
0
  9
$DIMALTRND
 40
0.0
  9
$DIMAZIN
 70
0
  9
$DIMDSEP
 70
44
  9
$DIMATFIT
 70
3
  9
$DIMFRAC
 70
0
  9
$DIMLDRBLK
  1

  9
$DIMLUNIT
 70
2
  9
$DIMLWD
 70
-2
  9
$DIMLWE
 70
-2
  9
$DIMTMOVE
 70
0
  9
$DIMFXL
 40
1.0
  9
$DIMFXLON
 70
0
  9
$DIMJOGANG
 40
0.785398163397
  9
$DIMTFILL
 70
0
  9
$DIMTFILLCLR
 70
0
  9
$DIMARCSYM
 70
0
  9
$DIMLTYPE
  6

  9
$DIMLTEX1
  6

  9
$DIMLTEX2
  6

  9
$DIMTXTDIRECTION
 70
0
  9
$LUNITS
 70
2
  9
$LUPREC
 70
4
  9
$SKETCHINC
 40
1.0
  9
$FILLETRAD
 40
10.0
  9
$AUNITS
 70
0
  9
$AUPREC
 70
2
  9
$MENU
  1
.
  9
$ELEVATION
 40
0.0
  9
$PELEVATION
 40
0.0
  9
$THICKNESS
 40
0.0
  9
$LIMCHECK
 70
0
  9
$CHAMFERA
 40
0.0
  9
$CHAMFERB
 40
0.0
  9
$CHAMFERC
 40
0.0
  9
$CHAMFERD
 40
0.0
  9
$SKPOLY
 70
0
  9
$TDCREATE
 40
2461220.444502315
  9
$TDUCREATE
 40
2458532.153996898
  9
$TDUPDATE
 40
2461220.444502315
  9
$TDUUPDATE
 40
2458532.1544311
  9
$TDINDWG
 40
0.0
  9
$TDUSRTIMER
 40
0.0
  9
$USRTIMER
 70
1
  9
$ANGBASE
 50
0.0
  9
$ANGDIR
 70
0
  9
$PDMODE
 70
0
  9
$PDSIZE
 40
0.0
  9
$PLINEWID
 40
0.0
  9
$SPLFRAME
 70
0
  9
$SPLINETYPE
 70
6
  9
$SPLINESEGS
 70
8
  9
$HANDSEED
  5
11A
  9
$SURFTAB1
 70
6
  9
$SURFTAB2
 70
6
  9
$SURFTYPE
 70
6
  9
$SURFU
 70
6
  9
$SURFV
 70
6
  9
$UCSBASE
  2

  9
$UCSNAME
  2

  9
$UCSORG
 10
0.0
 20
0.0
 30
0.0
  9
$UCSXDIR
 10
1.0
 20
0.0
 30
0.0
  9
$UCSYDIR
 10
0.0
 20
1.0
 30
0.0
  9
$UCSORTHOREF
  2

  9
$UCSORTHOVIEW
 70
0
  9
$UCSORGTOP
 10
0.0
 20
0.0
 30
0.0
  9
$UCSORGBOTTOM
 10
0.0
 20
0.0
 30
0.0
  9
$UCSORGLEFT
 10
0.0
 20
0.0
 30
0.0
  9
$UCSORGRIGHT
 10
0.0
 20
0.0
 30
0.0
  9
$UCSORGFRONT
 10
0.0
 20
0.0
 30
0.0
  9
$UCSORGBACK
 10
0.0
 20
0.0
 30
0.0
  9
$PUCSBASE
  2

  9
$PUCSNAME
  2

  9
$PUCSORG
 10
0.0
 20
0.0
 30
0.0
  9
$PUCSXDIR
 10
1.0
 20
0.0
 30
0.0
  9
$PUCSYDIR
 10
0.0
 20
1.0
 30
0.0
  9
$PUCSORTHOREF
  2

  9
$PUCSORTHOVIEW
 70
0
  9
$PUCSORGTOP
 10
0.0
 20
0.0
 30
0.0
  9
$PUCSORGBOTTOM
 10
0.0
 20
0.0
 30
0.0
  9
$PUCSORGLEFT
 10
0.0
 20
0.0
 30
0.0
  9
$PUCSORGRIGHT
 10
0.0
 20
0.0
 30
0.0
  9
$PUCSORGFRONT
 10
0.0
 20
0.0
 30
0.0
  9
$PUCSORGBACK
 10
0.0
 20
0.0
 30
0.0
  9
$USERI1
 70
0
  9
$USERI2
 70
0
  9
$USERI3
 70
0
  9
$USERI4
 70
0
  9
$USERI5
 70
0
  9
$USERR1
 40
0.0
  9
$USERR2
 40
0.0
  9
$USERR3
 40
0.0
  9
$USERR4
 40
0.0
  9
$USERR5
 40
0.0
  9
$WORLDVIEW
 70
1
  9
$SHADEDGE
 70
3
  9
$SHADEDIF
 70
70
  9
$TILEMODE
 70
1
  9
$MAXACTVP
 70
64
  9
$PINSBASE
 10
0.0
 20
0.0
 30
0.0
  9
$PLIMCHECK
 70
0
  9
$PEXTMIN
 10
1e+20
 20
1e+20
 30
1e+20
  9
$PEXTMAX
 10
-1e+20
 20
-1e+20
 30
-1e+20
  9
$PLIMMIN
 10
0.0
 20
0.0
  9
$PLIMMAX
 10
420.0
 20
297.0
  9
$UNITMODE
 70
0
  9
$VISRETAIN
 70
1
  9
$PLINEGEN
 70
0
  9
$PSLTSCALE
 70
1
  9
$TREEDEPTH
 70
3020
  9
$CMLSTYLE
  2
Standard
  9
$CMLJUST
 70
0
  9
$CMLSCALE
 40
20.0
  9
$PROXYGRAPHICS
 70
1
  9
$MEASUREMENT
 70
1
  9
$CELWEIGHT
370
-1
  9
$ENDCAPS
280
0
  9
$JOINSTYLE
280
0
  9
$LWDISPLAY
290
0
  9
$INSUNITS
 70
4
  9
$HYPERLINKBASE
  1

  9
$STYLESHEET
  1

  9
$XEDIT
290
1
  9
$CEPSNTYPE
380
0
  9
$PSTYLEMODE
290
1
  9
$FINGERPRINTGUID
  2
{4076DD17-7BCC-41EC-9D6A-3E308DEFAC38}
  9
$VERSIONGUID
  2
{D5BC6E52-B14B-4A66-8620-63D83B2638CE}
  9
$EXTNAMES
290
1
  9
$PSVPSCALE
 40
0.0
  9
$OLESTARTUP
290
0
  9
$SORTENTS
280
127
  9
$INDEXCTL
280
0
  9
$HIDETEXT
280
1
  9
$XCLIPFRAME
280
1
  9
$HALOGAP
280
0
  9
$OBSCOLOR
 70
257
  9
$OBSLTYPE
280
0
  9
$INTERSECTIONDISPLAY
280
0
  9
$INTERSECTIONCOLOR
 70
257
  9
$DIMASSOC
280
2
  9
$PROJECTNAME
  1

  9
$CAMERADISPLAY
290
0
  9
$LENSLENGTH
 40
50.0
  9
$CAMERAHEIGHT
 40
0.0
  9
$STEPSPERSEC
 40
24.0
  9
$STEPSIZE
 40
100.0
  9
$3DDWFPREC
 40
2.0
  9
$PSOLWIDTH
 40
0.005
  9
$PSOLHEIGHT
 40
0.08
  9
$LOFTANG1
 40
1.570796326795
  9
$LOFTANG2
 40
1.570796326795
  9
$LOFTMAG1
 40
0.0
  9
$LOFTMAG2
 40
0.0
  9
$LOFTPARAM
 70
7
  9
$LOFTNORMALS
280
1
  9
$LATITUDE
 40
37.795
  9
$LONGITUDE
 40
-122.394
  9
$NORTHDIRECTION
 40
0.0
  9
$TIMEZONE
 70
-8000
  9
$LIGHTGLYPHDISPLAY
280
1
  9
$TILEMODELIGHTSYNCH
280
1
  9
$CMATERIAL
347
20
  9
$SOLIDHIST
280
0
  9
$SHOWHIST
280
1
  9
$DWFFRAME
280
2
  9
$DGNFRAME
280
2
  9
$REALWORLDSCALE
290
1
  9
$INTERFERECOLOR
 62
256
  9
$CSHADOW
280
0
  9
$SHADOWPLANELOCATION
 40
0.0
  0
ENDSEC
  0
SECTION
  2
CLASSES
  0
CLASS
  1
ACDBDICTIONARYWDFLT
  2
AcDbDictionaryWithDefault
  3
ObjectDBX Classes
 90
0
 91
0
280
0
281
0
  0
CLASS
  1
SUN
  2
AcDbSun
  3
SCENEOE
 90
1153
 91
0
280
0
281
0
  0
CLASS
  1
VISUALSTYLE
  2
AcDbVisualStyle
  3
ObjectDBX Classes
 90
4095
 91
0
280
0
281
0
  0
CLASS
  1
MATERIAL
  2
AcDbMaterial
  3
ObjectDBX Classes
 90
1153
 91
0
280
0
281
0
  0
CLASS
  1
SCALE
  2
AcDbScale
  3
ObjectDBX Classes
 90
1153
 91
0
280
0
281
0
  0
CLASS
  1
TABLESTYLE
  2
AcDbTableStyle
  3
ObjectDBX Classes
 90
4095
 91
0
280
0
281
0
  0
CLASS
  1
MLEADERSTYLE
  2
AcDbMLeaderStyle
  3
ACDB_MLEADERSTYLE_CLASS
 90
4095
 91
0
280
0
281
0
  0
CLASS
  1
DICTIONARYVAR
  2
AcDbDictionaryVar
  3
ObjectDBX Classes
 90
0
 91
0
280
0
281
0
  0
CLASS
  1
CELLSTYLEMAP
  2
AcDbCellStyleMap
  3
ObjectDBX Classes
 90
1152
 91
0
280
0
281
0
  0
CLASS
  1
MENTALRAYRENDERSETTINGS
  2
AcDbMentalRayRenderSettings
  3
SCENEOE
 90
1024
 91
0
280
0
281
0
  0
CLASS
  1
ACDBDETAILVIEWSTYLE
  2
AcDbDetailViewStyle
  3
ObjectDBX Classes
 90
1025
 91
0
280
0
281
0
  0
CLASS
  1
ACDBSECTIONVIEWSTYLE
  2
AcDbSectionViewStyle
  3
ObjectDBX Classes
 90
1025
 91
0
280
0
281
0
  0
CLASS
  1
RASTERVARIABLES
  2
AcDbRasterVariables
  3
ISM
 90
0
 91
0
280
0
281
0
  0
CLASS
  1
LAYOUT
  2
AcDbLayout
  3
ObjectDBX Classes
 90
0
 91
0
280
0
281
0
  0
CLASS
  1
ACDBPLACEHOLDER
  2
AcDbPlaceHolder
  3
ObjectDBX Classes
 90
0
 91
0
280
0
281
0
  0
ENDSEC
  0
SECTION
  2
TABLES
  0
TABLE
  2
VPORT
  5
8
330
0
100
AcDbSymbolTable
 70
1
  0
VPORT
  5
23
330
8
100
AcDbSymbolTableRecord
100
AcDbViewportTableRecord
  2
*Active
 70
0
 10
0.0
 20
0.0
 11
1.0
 21
1.0
 12
0.0
 22
0.0
 13
0.0
 23
0.0
 14
0.5
 24
0.5
 15
0.5
 25
0.5
 16
0.0
 26
0.0
 36
1.0
 17
0.0
 27
0.0
 37
0.0
 40
1000.0
 41
1.34
 42
50.0
 43
0.0
 44
0.0
 50
0.0
 51
0.0
 71
0
 72
1000
 73
1
 74
3
 75
0
 76
0
 77
0
 78
0
281
0
 65
0
146
0.0
  0
ENDTAB
  0
TABLE
  2
LTYPE
  5
2
330
0
100
AcDbSymbolTable
 70
4
  0
LTYPE
  5
24
330
2
100
AcDbSymbolTableRecord
100
AcDbLinetypeTableRecord
  2
ByBlock
 70
0
  3

 72
65
 73
0
 40
0.0
  0
LTYPE
  5
25
330
2
100
AcDbSymbolTableRecord
100
AcDbLinetypeTableRecord
  2
ByLayer
 70
0
  3

 72
65
 73
0
 40
0.0
  0
LTYPE
  5
26
330
2
100
AcDbSymbolTableRecord
100
AcDbLinetypeTableRecord
  2
Continuous
 70
0
  3

 72
65
 73
0
 40
0.0
  0
LTYPE
  5
2F
330
2
100
AcDbSymbolTableRecord
100
AcDbLinetypeTableRecord
  2
DASHED
 70
0
  3

 72
65
 73
1
 40
2.0
 49
-1.0
 74
0
  0
ENDTAB
  0
TABLE
  2
LAYER
  5
1
330
0
100
AcDbSymbolTable
 70
9
  0
LAYER
  5
27
330
1
100
AcDbSymbolTableRecord
100
AcDbLayerTableRecord
  2
0
 70
0
 62
7
  6
Continuous
370
-3
390
13
347
21
  0
LAYER
  5
28
330
1
100
AcDbSymbolTableRecord
100
AcDbLayerTableRecord
  2
Defpoints
 70
0
 62
7
  6
Continuous
290
0
370
-3
390
13
347
21
  0
LAYER
  5
30
330
1
100
AcDbSymbolTableRecord
100
AcDbLayerTableRecord
  2
HW_RUIMTE
 70
0
 62
7
420
10526880
  6
Continuous
370
-3
390
13
347
21
  0
LAYER
  5
31
330
1
100
AcDbSymbolTableRecord
100
AcDbLayerTableRecord
  2
HW_KAST
 70
0
 62
7
420
0
  6
Continuous
370
-3
390
13
347
21
  0
LAYER
  5
32
330
1
100
AcDbSymbolTableRecord
100
AcDbLayerTableRecord
  2
HW_KAST_HEADER
 70
0
 62
7
420
1402304
  6
Continuous
370
-3
390
13
347
21
  0
LAYER
  5
33
330
1
100
AcDbSymbolTableRecord
100
AcDbLayerTableRecord
  2
HW_VELDCOMPONENT
 70
0
 62
7
420
0
  6
Continuous
370
-3
390
13
347
21
  0
LAYER
  5
34
330
1
100
AcDbSymbolTableRecord
100
AcDbLayerTableRecord
  2
HW_VELDCOMPONENT_HEADER
 70
0
 62
7
420
3046706
  6
Continuous
370
-3
390
13
347
21
  0
LAYER
  5
35
330
1
100
AcDbSymbolTableRecord
100
AcDbLayerTableRecord
  2
HW_TEKST
 70
0
 62
7
420
0
  6
Continuous
370
-3
390
13
347
21
  0
LAYER
  5
36
330
1
100
AcDbSymbolTableRecord
100
AcDbLayerTableRecord
  2
HW_VERBINDING
 70
0
 62
7
420
5263440
  6
Continuous
370
-3
390
13
347
21
  0
ENDTAB
  0
TABLE
  2
STYLE
  5
5
330
0
100
AcDbSymbolTable
 70
1
  0
STYLE
  5
29
330
5
100
AcDbSymbolTableRecord
100
AcDbTextStyleTableRecord
  2
Standard
 70
0
 40
0.0
 41
1.0
 50
0.0
 71
0
 42
2.5
  3
txt
  4

  0
ENDTAB
  0
TABLE
  2
VIEW
  5
7
330
0
100
AcDbSymbolTable
 70
0
  0
ENDTAB
  0
TABLE
  2
UCS
  5
6
330
0
100
AcDbSymbolTable
 70
0
  0
ENDTAB
  0
TABLE
  2
APPID
  5
3
330
0
100
AcDbSymbolTable
 70
3
  0
APPID
  5
2A
330
3
100
AcDbSymbolTableRecord
100
AcDbRegAppTableRecord
  2
ACAD
 70
0
  0
APPID
  5
117
330
3
100
AcDbSymbolTableRecord
100
AcDbRegAppTableRecord
  2
HATCHBACKGROUNDCOLOR
 70
0
  0
APPID
  5
118
330
3
100
AcDbSymbolTableRecord
100
AcDbRegAppTableRecord
  2
EZDXF
 70
0
  0
ENDTAB
  0
TABLE
  2
DIMSTYLE
  5
4
330
0
100
AcDbSymbolTable
 70
1
100
AcDbDimStyleTable
  0
DIMSTYLE
105
2B
330
4
100
AcDbSymbolTableRecord
100
AcDbDimStyleTableRecord
  2
Standard
 70
0
 40
1.0
 41
2.5
 42
0.625
 43
3.75
 44
1.25
 45
0.0
 46
0.0
 47
0.0
 48
0.0
 49
2.5
140
2.5
141
2.5
142
0.0
143
0.03937007874
144
1.0
145
0.0
146
1.0
147
0.625
148
0.0
 69
0
 70
0
 71
0
 72
0
 73
0
 74
0
 75
0
 76
0
 77
1
 78
8
 79
3
170
0
171
3
172
1
173
0
174
0
175
0
176
0
177
0
178
0
179
2
271
2
272
2
273
2
274
3
275
0
276
0
277
2
278
44
279
0
280
0
281
0
282
0
283
0
284
8
285
0
286
0
288
0
289
3
290
0
371
-2
372
-2
  0
ENDTAB
  0
TABLE
  2
BLOCK_RECORD
  5
9
330
0
100
AcDbSymbolTable
 70
2
  0
BLOCK_RECORD
  5
17
330
9
100
AcDbSymbolTableRecord
100
AcDbBlockTableRecord
  2
*Model_Space
340
1A
 70
0
280
1
281
0
  0
BLOCK_RECORD
  5
1B
330
9
100
AcDbSymbolTableRecord
100
AcDbBlockTableRecord
  2
*Paper_Space
340
1E
 70
0
280
1
281
0
  0
ENDTAB
  0
ENDSEC
  0
SECTION
  2
BLOCKS
  0
BLOCK
  5
18
330
17
100
AcDbEntity
  8
0
100
AcDbBlockBegin
  2
*Model_Space
 70
0
 10
0.0
 20
0.0
 30
0.0
  3
*Model_Space
  1

  0
ENDBLK
  5
19
330
17
100
AcDbEntity
  8
0
100
AcDbBlockEnd
  0
BLOCK
  5
1C
330
1B
100
AcDbEntity
  8
0
100
AcDbBlockBegin
  2
*Paper_Space
 70
0
 10
0.0
 20
0.0
 30
0.0
  3
*Paper_Space
  1

  0
ENDBLK
  5
1D
330
1B
100
AcDbEntity
  8
0
100
AcDbBlockEnd
  0
ENDSEC
  0
SECTION
  2
ENTITIES
  0
LWPOLYLINE
  5
37
330
17
100
AcDbEntity
  8
HW_RUIMTE
  6
DASHED
420
10526880
100
AcDbPolyline
 90
4
 70
1
 10
15.0
 20
-15.0
 10
258.55503144654085
 20
-15.0
 10
258.55503144654085
 20
-179.81407232704402
 10
15.0
 20
-179.81407232704402
  0
TEXT
  5
38
330
17
100
AcDbEntity
  8
HW_TEKST
420
10526880
100
AcDbText
 10
15.6375786163522
 20
-15.956367924528301
 30
0.0
 40
1.5939465408805031
  1
++QE  Laagspanningsruimte
100
AcDbText
  0
LWPOLYLINE
  5
39
330
17
100
AcDbEntity
  8
HW_RUIMTE
  6
DASHED
420
10526880
100
AcDbPolyline
 90
4
 70
1
 10
15.0
 20
-191.29048742138366
 10
826.0
 20
-191.29048742138366
 10
826.0
 20
-298.7224842767296
 10
15.0
 20
-298.7224842767296
  0
TEXT
  5
3A
330
17
100
AcDbEntity
  8
HW_TEKST
420
10526880
100
AcDbText
 10
15.6375786163522
 20
-192.24685534591197
 30
0.0
 40
1.5939465408805031
  1
++QP  Pompenruimte
100
AcDbText
  0
LWPOLYLINE
  5
3B
330
17
100
AcDbEntity
  8
HW_KAST
420
0
100
AcDbPolyline
 90
4
 70
1
 10
148.25393081761007
 20
-27.432783018867926
 10
183.32075471698113
 20
-27.432783018867926
 10
183.32075471698113
 20
-40.18435534591195
 10
148.25393081761007
 20
-40.18435534591195
  0
LWPOLYLINE
  5
3C
330
17
100
AcDbEntity
  8
HW_KAST_HEADER
420
1402304
100
AcDbPolyline
 90
4
 70
1
 10
148.25393081761007
 20
-27.432783018867926
 10
183.32075471698113
 20
-27.432783018867926
 10
183.32075471698113
 20
-32.53341194968554
 10
148.25393081761007
 20
-32.53341194968554
  0
TEXT
  5
3D
330
17
100
AcDbEntity
  8
HW_TEKST
420
16777215
100
AcDbText
 10
148.73211477987422
 20
-32.05522798742138
 30
0.0
 40
1.4345518867924527
  1
HV  ==07=031++QE+E02
100
AcDbText
  0
TEXT
  5
3E
330
17
100
AcDbEntity
  8
HW_TEKST
420
0
100
AcDbText
 10
148.73211477987422
 20
-33.17099056603774
 30
0.0
 40
1.2751572327044025
  1
JS2 Hoofdverdeler
100
AcDbText
  0
LWPOLYLINE
  5
3F
330
17
100
AcDbEntity
  8
HW_KAST
420
0
100
AcDbPolyline
 90
4
 70
1
 10
220.93789308176102
 20
-27.432783018867926
 10
256.0047169811321
 20
-27.432783018867926
 10
256.0047169811321
 20
-40.18435534591195
 10
220.93789308176102
 20
-40.18435534591195
  0
LWPOLYLINE
  5
40
330
17
100
AcDbEntity
  8
HW_KAST_HEADER
420
1402304
100
AcDbPolyline
 90
4
 70
1
 10
220.93789308176102
 20
-27.432783018867926
 10
256.0047169811321
 20
-27.432783018867926
 10
256.0047169811321
 20
-32.53341194968554
 10
220.93789308176102
 20
-32.53341194968554
  0
TEXT
  5
41
330
17
100
AcDbEntity
  8
HW_TEKST
420
16777215
100
AcDbText
 10
221.41607704402517
 20
-32.05522798742138
 30
0.0
 40
1.4345518867924527
  1
HV  ==07=031++QE+E03
100
AcDbText
  0
TEXT
  5
42
330
17
100
AcDbEntity
  8
HW_TEKST
420
0
100
AcDbText
 10
221.41607704402517
 20
-33.17099056603774
 30
0.0
 40
1.2751572327044025
  1
JS2 Hoofdverdeler Vitaal
100
AcDbText
  0
LWPOLYLINE
  5
43
330
17
100
AcDbEntity
  8
HW_KAST
420
0
100
AcDbPolyline
 90
4
 70
1
 10
23.92610062893082
 20
-84.81485849056604
 10
58.992924528301884
 20
-84.81485849056604
 10
58.992924528301884
 20
-97.56643081761007
 10
23.92610062893082
 20
-97.56643081761007
  0
LWPOLYLINE
  5
44
330
17
100
AcDbEntity
  8
HW_KAST_HEADER
420
6953882
100
AcDbPolyline
 90
4
 70
1
 10
23.92610062893082
 20
-84.81485849056604
 10
58.992924528301884
 20
-84.81485849056604
 10
58.992924528301884
 20
-89.91548742138365
 10
23.92610062893082
 20
-89.91548742138365
  0
TEXT
  5
45
330
17
100
AcDbEntity
  8
HW_TEKST
420
16777215
100
AcDbText
 10
24.40428459119497
 20
-89.43730345911949
 30
0.0
 40
1.4345518867924527
  1
BK  ==07=031++QE+U01
100
AcDbText
  0
TEXT
  5
46
330
17
100
AcDbEntity
  8
HW_TEKST
420
0
100
AcDbText
 10
24.40428459119497
 20
-90.55306603773585
 30
0.0
 40
1.2751572327044025
  1
JS2 M+R Kast Aandrijfsysteem Drive
100
AcDbText
  0
LWPOLYLINE
  5
47
330
17
100
AcDbEntity
  8
HW_KAST
420
0
100
AcDbPolyline
 90
4
 70
1
 10
91.50943396226415
 20
-84.81485849056604
 10
126.57625786163521
 20
-84.81485849056604
 10
126.57625786163521
 20
-97.56643081761007
 10
91.50943396226415
 20
-97.56643081761007
  0
LWPOLYLINE
  5
48
330
17
100
AcDbEntity
  8
HW_KAST_HEADER
420
6953882
100
AcDbPolyline
 90
4
 70
1
 10
91.50943396226415
 20
-84.81485849056604
 10
126.57625786163521
 20
-84.81485849056604
 10
126.57625786163521
 20
-89.91548742138365
 10
91.50943396226415
 20
-89.91548742138365
  0
TEXT
  5
49
330
17
100
AcDbEntity
  8
HW_TEKST
420
16777215
100
AcDbText
 10
91.98761792452831
 20
-89.43730345911949
 30
0.0
 40
1.4345518867924527
  1
BK  ==07=023++QE+R01
100
AcDbText
  0
TEXT
  5
4A
330
17
100
AcDbEntity
  8
HW_TEKST
420
0
100
AcDbText
 10
91.98761792452831
 20
-90.55306603773585
 30
0.0
 40
1.2751572327044025
  1
JS2 Gemaal Kast Niveaumeting
100
AcDbText
  0
LWPOLYLINE
  5
4B
330
17
100
AcDbEntity
  8
HW_KAST
420
0
100
AcDbPolyline
 90
4
 70
1
 10
18.82547169811321
 20
-27.432783018867926
 10
53.89229559748428
 20
-27.432783018867926
 10
53.89229559748428
 20
-40.18435534591195
 10
18.82547169811321
 20
-40.18435534591195
  0
LWPOLYLINE
  5
4C
330
17
100
AcDbEntity
  8
HW_KAST_HEADER
420
1402304
100
AcDbPolyline
 90
4
 70
1
 10
18.82547169811321
 20
-27.432783018867926
 10
53.89229559748428
 20
-27.432783018867926
 10
53.89229559748428
 20
-32.53341194968554
 10
18.82547169811321
 20
-32.53341194968554
  0
TEXT
  5
4D
330
17
100
AcDbEntity
  8
HW_TEKST
420
16777215
100
AcDbText
 10
19.30365566037736
 20
-32.05522798742138
 30
0.0
 40
1.4345518867924527
  1
HV  ==01=002++QE+E02
100
AcDbText
  0
TEXT
  5
4E
330
17
100
AcDbEntity
  8
HW_TEKST
420
0
100
AcDbText
 10
19.30365566037736
 20
-33.17099056603774
 30
0.0
 40
1.2751572327044025
  1
JS2 Hoofdverdeler Bestaand
100
AcDbText
  0
LWPOLYLINE
  5
4F
330
17
100
AcDbEntity
  8
HW_KAST
420
0
100
AcDbPolyline
 90
4
 70
1
 10
65.36871069182389
 20
-56.12382075471698
 10
100.43553459119497
 20
-56.12382075471698
 10
100.43553459119497
 20
-68.875393081761
 10
65.36871069182389
 20
-68.875393081761
  0
LWPOLYLINE
  5
50
330
17
100
AcDbEntity
  8
HW_KAST_HEADER
420
1668818
100
AcDbPolyline
 90
4
 70
1
 10
65.36871069182389
 20
-56.12382075471698
 10
100.43553459119497
 20
-56.12382075471698
 10
100.43553459119497
 20
-61.224449685534594
 10
65.36871069182389
 20
-61.224449685534594
  0
TEXT
  5
51
330
17
100
AcDbEntity
  8
HW_TEKST
420
16777215
100
AcDbText
 10
65.84689465408805
 20
-60.74626572327044
 30
0.0
 40
1.4345518867924527
  1
OV  ==01=002++QE+F01
100
AcDbText
  0
TEXT
  5
52
330
17
100
AcDbEntity
  8
HW_TEKST
420
0
100
AcDbText
 10
65.84689465408805
 20
-61.862028301886795
 30
0.0
 40
1.2751572327044025
  1
Onderverdeler JS
100
AcDbText
  0
LWPOLYLINE
  5
53
330
17
100
AcDbEntity
  8
HW_KAST
420
0
100
AcDbPolyline
 90
4
 70
1
 10
127.85141509433963
 20
-232.41430817610063
 10
162.9182389937107
 20
-232.41430817610063
 10
162.9182389937107
 20
-245.16588050314465
 10
127.85141509433963
 20
-245.16588050314465
  0
LWPOLYLINE
  5
54
330
17
100
AcDbEntity
  8
HW_KAST_HEADER
420
15094016
100
AcDbPolyline
 90
4
 70
1
 10
127.85141509433963
 20
-232.41430817610063
 10
162.9182389937107
 20
-232.41430817610063
 10
162.9182389937107
 20
-237.51493710691824
 10
127.85141509433963
 20
-237.51493710691824
  0
TEXT
  5
55
330
17
100
AcDbEntity
  8
HW_TEKST
420
16777215
100
AcDbText
 10
128.32959905660377
 20
-237.03675314465409
 30
0.0
 40
1.4345518867924527
  1
KK  ==07=031++QP+N01
100
AcDbText
  0
TEXT
  5
56
330
17
100
AcDbEntity
  8
HW_TEKST
420
0
100
AcDbText
 10
128.32959905660377
 20
-238.15251572327045
 30
0.0
 40
1.2751572327044025
  1
JS2 Gemaalpomp Klemmenkast
100
AcDbText
  0
LWPOLYLINE
  5
57
330
17
100
AcDbEntity
  8
HW_KAST
420
0
100
AcDbPolyline
 90
4
 70
1
 10
60.268081761006286
 20
-232.41430817610063
 10
95.33490566037736
 20
-232.41430817610063
 10
95.33490566037736
 20
-245.16588050314465
 10
60.268081761006286
 20
-245.16588050314465
  0
LWPOLYLINE
  5
58
330
17
100
AcDbEntity
  8
HW_KAST_HEADER
420
26972
100
AcDbPolyline
 90
4
 70
1
 10
60.268081761006286
 20
-232.41430817610063
 10
95.33490566037736
 20
-232.41430817610063
 10
95.33490566037736
 20
-237.51493710691824
 10
60.268081761006286
 20
-237.51493710691824
  0
TEXT
  5
59
330
17
100
AcDbEntity
  8
HW_TEKST
420
16777215
100
AcDbText
 10
60.74626572327044
 20
-237.03675314465409
 30
0.0
 40
1.4345518867924527
  1
NK  ==07=031++QP+S01
100
AcDbText
  0
TEXT
  5
5A
330
17
100
AcDbEntity
  8
HW_TEKST
420
0
100
AcDbText
 10
60.74626572327044
 20
-238.15251572327045
 30
0.0
 40
1.2751572327044025
  1
CBX Gemaal
100
AcDbText
  0
LWPOLYLINE
  5
5B
330
17
100
AcDbEntity
  8
HW_KAST
420
0
100
AcDbPolyline
 90
4
 70
1
 10
184.59591194968553
 20
-56.12382075471698
 10
219.6627358490566
 20
-56.12382075471698
 10
219.6627358490566
 20
-68.875393081761
 10
184.59591194968553
 20
-68.875393081761
  0
LWPOLYLINE
  5
5C
330
17
100
AcDbEntity
  8
HW_KAST_HEADER
420
1668818
100
AcDbPolyline
 90
4
 70
1
 10
184.59591194968553
 20
-56.12382075471698
 10
219.6627358490566
 20
-56.12382075471698
 10
219.6627358490566
 20
-61.224449685534594
 10
184.59591194968553
 20
-61.224449685534594
  0
TEXT
  5
5D
330
17
100
AcDbEntity
  8
HW_TEKST
420
16777215
100
AcDbText
 10
185.07409591194968
 20
-60.74626572327044
 30
0.0
 40
1.4345518867924527
  1
OV  ==12=006++QE+G01
100
AcDbText
  0
TEXT
  5
5E
330
17
100
AcDbEntity
  8
HW_TEKST
420
0
100
AcDbText
 10
185.07409591194968
 20
-61.862028301886795
 30
0.0
 40
1.2751572327044025
  1
Gemaal JS Lichtverdeler
100
AcDbText
  0
LWPOLYLINE
  5
5F
330
17
100
AcDbEntity
  8
HW_KAST
420
0
100
AcDbPolyline
 90
4
 70
1
 10
23.92610062893082
 20
-203.72327044025158
 10
58.992924528301884
 20
-203.72327044025158
 10
58.992924528301884
 20
-216.4748427672956
 10
23.92610062893082
 20
-216.4748427672956
  0
LWPOLYLINE
  5
60
330
17
100
AcDbEntity
  8
HW_KAST_HEADER
420
6953882
100
AcDbPolyline
 90
4
 70
1
 10
23.92610062893082
 20
-203.72327044025158
 10
58.992924528301884
 20
-203.72327044025158
 10
58.992924528301884
 20
-208.8238993710692
 10
23.92610062893082
 20
-208.8238993710692
  0
TEXT
  5
61
330
17
100
AcDbEntity
  8
HW_TEKST
420
16777215
100
AcDbText
 10
24.40428459119497
 20
-208.34571540880503
 30
0.0
 40
1.4345518867924527
  1
BK  ==06=031++QP+R01
100
AcDbText
  0
TEXT
  5
62
330
17
100
AcDbEntity
  8
HW_TEKST
420
0
100
AcDbText
 10
24.40428459119497
 20
-209.4614779874214
 30
0.0
 40
1.2751572327044025
  1
JS1 Pompenruimte M+R Kast Rioolschuiven
100
AcDbText
  0
LWPOLYLINE
  5
63
330
17
100
AcDbEntity
  8
HW_KAST
420
0
100
AcDbPolyline
 90
4
 70
1
 10
200.53537735849056
 20
-232.41430817610063
 10
235.60220125786162
 20
-232.41430817610063
 10
235.60220125786162
 20
-245.16588050314465
 10
200.53537735849056
 20
-245.16588050314465
  0
LWPOLYLINE
  5
64
330
17
100
AcDbEntity
  8
HW_KAST_HEADER
420
15094016
100
AcDbPolyline
 90
4
 70
1
 10
200.53537735849056
 20
-232.41430817610063
 10
235.60220125786162
 20
-232.41430817610063
 10
235.60220125786162
 20
-237.51493710691824
 10
200.53537735849056
 20
-237.51493710691824
  0
TEXT
  5
65
330
17
100
AcDbEntity
  8
HW_TEKST
420
16777215
100
AcDbText
 10
201.01356132075472
 20
-237.03675314465409
 30
0.0
 40
1.4345518867924527
  1
KK  ==07=031++QP+N02
100
AcDbText
  0
TEXT
  5
66
330
17
100
AcDbEntity
  8
HW_TEKST
420
0
100
AcDbText
 10
201.01356132075472
 20
-238.15251572327045
 30
0.0
 40
1.2751572327044025
  1
JS2 M+R Kast Aandrijfsysteem Gemaalpomp JS
100
AcDbText
  0
LWPOLYLINE
  5
67
330
17
100
AcDbEntity
  8
HW_KAST
420
0
100
AcDbPolyline
 90
4
 70
1
 10
101.71069182389937
 20
-142.19693396226415
 10
136.77751572327043
 20
-142.19693396226415
 10
136.77751572327043
 20
-154.94850628930817
 10
101.71069182389937
 20
-154.94850628930817
  0
LWPOLYLINE
  5
68
330
17
100
AcDbEntity
  8
HW_KAST_HEADER
420
6953882
100
AcDbPolyline
 90
4
 70
1
 10
101.71069182389937
 20
-142.19693396226415
 10
136.77751572327043
 20
-142.19693396226415
 10
136.77751572327043
 20
-147.29756289308176
 10
101.71069182389937
 20
-147.29756289308176
  0
TEXT
  5
69
330
17
100
AcDbEntity
  8
HW_TEKST
420
16777215
100
AcDbText
 10
102.18887578616352
 20
-146.8193789308176
 30
0.0
 40
1.4345518867924527
  1
BK  ==06=031++QP+R02
100
AcDbText
  0
TEXT
  5
6A
330
17
100
AcDbEntity
  8
HW_TEKST
420
0
100
AcDbText
 10
102.18887578616352
 20
-147.93514150943398
 30
0.0
 40
1.2751572327044025
  1
JS1 M+R Kast Aandrijfsysteem Gemaalpomp JS
100
AcDbText
  0
LWPOLYLINE
  5
6B
330
17
100
AcDbEntity
  8
HW_KAST
420
0
100
AcDbPolyline
 90
4
 70
1
 10
96.61006289308176
 20
-113.50589622641509
 10
131.67688679245282
 20
-113.50589622641509
 10
131.67688679245282
 20
-126.25746855345912
 10
96.61006289308176
 20
-126.25746855345912
  0
LWPOLYLINE
  5
6C
330
17
100
AcDbEntity
  8
HW_KAST_HEADER
420
6953882
100
AcDbPolyline
 90
4
 70
1
 10
96.61006289308176
 20
-113.50589622641509
 10
131.67688679245282
 20
-113.50589622641509
 10
131.67688679245282
 20
-118.6065251572327
 10
96.61006289308176
 20
-118.6065251572327
  0
TEXT
  5
6D
330
17
100
AcDbEntity
  8
HW_TEKST
420
16777215
100
AcDbText
 10
97.08824685534591
 20
-118.12834119496854
 30
0.0
 40
1.4345518867924527
  1
BK  ==07=031++QP+R02
100
AcDbText
  0
TEXT
  5
6E
330
17
100
AcDbEntity
  8
HW_TEKST
420
0
100
AcDbText
 10
97.08824685534591
 20
-119.2441037735849
 30
0.0
 40
1.2751572327044025
  1
JS2 M+R Kast Aandrijfsysteem
100
AcDbText
  0
LWPOLYLINE
  5
6F
330
17
100
AcDbEntity
  8
HW_KAST
420
0
100
AcDbPolyline
 90
4
 70
1
 10
96.61006289308176
 20
-203.72327044025158
 10
131.67688679245282
 20
-203.72327044025158
 10
131.67688679245282
 20
-216.4748427672956
 10
96.61006289308176
 20
-216.4748427672956
  0
LWPOLYLINE
  5
70
330
17
100
AcDbEntity
  8
HW_KAST_HEADER
420
6953882
100
AcDbPolyline
 90
4
 70
1
 10
96.61006289308176
 20
-203.72327044025158
 10
131.67688679245282
 20
-203.72327044025158
 10
131.67688679245282
 20
-208.8238993710692
 10
96.61006289308176
 20
-208.8238993710692
  0
TEXT
  5
71
330
17
100
AcDbEntity
  8
HW_TEKST
420
16777215
100
AcDbText
 10
97.08824685534591
 20
-208.34571540880503
 30
0.0
 40
1.4345518867924527
  1
BK  ==06=031++QE+U01
100
AcDbText
  0
TEXT
  5
72
330
17
100
AcDbEntity
  8
HW_TEKST
420
0
100
AcDbText
 10
97.08824685534591
 20
-209.4614779874214
 30
0.0
 40
1.2751572327044025
  1
JS1 Gemaalpomp M+R Kast Aandrijfsysteem
100
AcDbText
  0
LWPOLYLINE
  5
73
330
17
100
AcDbEntity
  8
HW_VELDCOMPONENT
420
0
100
AcDbPolyline
 90
4
 70
1
 10
164.1933962264151
 20
-261.1053459119497
 10
199.26022012578616
 20
-261.1053459119497
 10
199.26022012578616
 20
-273.8569182389937
 10
164.1933962264151
 20
-273.8569182389937
  0
LWPOLYLINE
  5
74
330
17
100
AcDbEntity
  8
HW_VELDCOMPONENT_HEADER
420
3046706
100
AcDbPolyline
 90
4
 70
1
 10
164.1933962264151
 20
-261.1053459119497
 10
199.26022012578616
 20
-261.1053459119497
 10
199.26022012578616
 20
-266.2059748427673
 10
164.1933962264151
 20
-266.2059748427673
  0
TEXT
  5
75
330
17
100
AcDbEntity
  8
HW_TEKST
420
16777215
100
AcDbText
 10
164.67158018867926
 20
-265.72779088050316
 30
0.0
 40
1.4345518867924527
  1
==07=031++QP-M0001
100
AcDbText
  0
TEXT
  5
76
330
17
100
AcDbEntity
  8
HW_TEKST
420
0
100
AcDbText
 10
164.67158018867926
 20
-266.8435534591195
 30
0.0
 40
1.2751572327044025
  1
JS2 Motor Pomp Gemaal
100
AcDbText
  0
LWPOLYLINE
  5
77
330
17
100
AcDbEntity
  8
HW_VELDCOMPONENT
420
0
100
AcDbPolyline
 90
4
 70
1
 10
788.3828616352201
 20
-261.1053459119497
 10
823.4496855345913
 20
-261.1053459119497
 10
823.4496855345913
 20
-273.8569182389937
 10
788.3828616352201
 20
-273.8569182389937
  0
LWPOLYLINE
  5
78
330
17
100
AcDbEntity
  8
HW_VELDCOMPONENT_HEADER
420
3046706
100
AcDbPolyline
 90
4
 70
1
 10
788.3828616352201
 20
-261.1053459119497
 10
823.4496855345913
 20
-261.1053459119497
 10
823.4496855345913
 20
-266.2059748427673
 10
788.3828616352201
 20
-266.2059748427673
  0
TEXT
  5
79
330
17
100
AcDbEntity
  8
HW_TEKST
420
16777215
100
AcDbText
 10
788.8610455974842
 20
-265.72779088050316
 30
0.0
 40
1.4345518867924527
  1
==07=031++QP-S0001
100
AcDbText
  0
TEXT
  5
7A
330
17
100
AcDbEntity
  8
HW_TEKST
420
0
100
AcDbText
 10
788.8610455974842
 20
-266.8435534591195
 30
0.0
 40
1.2751572327044025
  1
Werkschakelaar Motor Pomp Gemaal
100
AcDbText
  0
LWPOLYLINE
  5
7B
330
17
100
AcDbEntity
  8
HW_VELDCOMPONENT
420
0
100
AcDbPolyline
 90
4
 70
1
 10
132.95204402515722
 20
-261.1053459119497
 10
168.01886792452828
 20
-261.1053459119497
 10
168.01886792452828
 20
-273.8569182389937
 10
132.95204402515722
 20
-273.8569182389937
  0
LWPOLYLINE
  5
7C
330
17
100
AcDbEntity
  8
HW_VELDCOMPONENT_HEADER
420
3046706
100
AcDbPolyline
 90
4
 70
1
 10
132.95204402515722
 20
-261.1053459119497
 10
168.01886792452828
 20
-261.1053459119497
 10
168.01886792452828
 20
-266.2059748427673
 10
132.95204402515722
 20
-266.2059748427673
  0
TEXT
  5
7D
330
17
100
AcDbEntity
  8
HW_TEKST
420
16777215
100
AcDbText
 10
133.43022798742138
 20
-265.72779088050316
 30
0.0
 40
1.4345518867924527
  1
==07=031++QP-B1001
100
AcDbText
  0
TEXT
  5
7E
330
17
100
AcDbEntity
  8
HW_TEKST
420
0
100
AcDbText
 10
133.43022798742138
 20
-266.8435534591195
 30
0.0
 40
1.2751572327044025
  1
Encoder Motor Pomp Gemaal JS2
100
AcDbText
  0
LWPOLYLINE
  5
7F
330
17
100
AcDbEntity
  8
HW_VELDCOMPONENT
420
0
100
AcDbPolyline
 90
4
 70
1
 10
205.63600628930817
 20
-261.1053459119497
 10
240.70283018867923
 20
-261.1053459119497
 10
240.70283018867923
 20
-273.8569182389937
 10
205.63600628930817
 20
-273.8569182389937
  0
LWPOLYLINE
  5
80
330
17
100
AcDbEntity
  8
HW_VELDCOMPONENT_HEADER
420
3046706
100
AcDbPolyline
 90
4
 70
1
 10
205.63600628930817
 20
-261.1053459119497
 10
240.70283018867923
 20
-261.1053459119497
 10
240.70283018867923
 20
-266.2059748427673
 10
205.63600628930817
 20
-266.2059748427673
  0
TEXT
  5
81
330
17
100
AcDbEntity
  8
HW_TEKST
420
16777215
100
AcDbText
 10
206.11419025157232
 20
-265.72779088050316
 30
0.0
 40
1.4345518867924527
  1
==07=031++QP-B1002
100
AcDbText
  0
TEXT
  5
82
330
17
100
AcDbEntity
  8
HW_TEKST
420
0
100
AcDbText
 10
206.11419025157232
 20
-266.8435534591195
 30
0.0
 40
1.2751572327044025
  1
PT100 Lager ZZ Motor Pomp Gemaal JS2
100
AcDbText
  0
LWPOLYLINE
  5
83
330
17
100
AcDbEntity
  8
HW_VELDCOMPONENT
420
0
100
AcDbPolyline
 90
4
 70
1
 10
236.87735849056602
 20
-261.1053459119497
 10
271.9441823899371
 20
-261.1053459119497
 10
271.9441823899371
 20
-273.8569182389937
 10
236.87735849056602
 20
-273.8569182389937
  0
LWPOLYLINE
  5
84
330
17
100
AcDbEntity
  8
HW_VELDCOMPONENT_HEADER
420
3046706
100
AcDbPolyline
 90
4
 70
1
 10
236.87735849056602
 20
-261.1053459119497
 10
271.9441823899371
 20
-261.1053459119497
 10
271.9441823899371
 20
-266.2059748427673
 10
236.87735849056602
 20
-266.2059748427673
  0
TEXT
  5
85
330
17
100
AcDbEntity
  8
HW_TEKST
420
16777215
100
AcDbText
 10
237.35554245283018
 20
-265.72779088050316
 30
0.0
 40
1.4345518867924527
  1
==07=031++QP-B1003
100
AcDbText
  0
TEXT
  5
86
330
17
100
AcDbEntity
  8
HW_TEKST
420
0
100
AcDbText
 10
237.35554245283018
 20
-266.8435534591195
 30
0.0
 40
1.2751572327044025
  1
Vochtdetectie Stator Motor Pomp Gemaal JS2
100
AcDbText
  0
LWPOLYLINE
  5
87
330
17
100
AcDbEntity
  8
HW_VELDCOMPONENT
420
0
100
AcDbPolyline
 90
4
 70
1
 10
715.6988993710692
 20
-261.1053459119497
 10
750.7657232704403
 20
-261.1053459119497
 10
750.7657232704403
 20
-273.8569182389937
 10
715.6988993710692
 20
-273.8569182389937
  0
LWPOLYLINE
  5
88
330
17
100
AcDbEntity
  8
HW_VELDCOMPONENT_HEADER
420
3046706
100
AcDbPolyline
 90
4
 70
1
 10
715.6988993710692
 20
-261.1053459119497
 10
750.7657232704403
 20
-261.1053459119497
 10
750.7657232704403
 20
-266.2059748427673
 10
715.6988993710692
 20
-266.2059748427673
  0
TEXT
  5
89
330
17
100
AcDbEntity
  8
HW_TEKST
420
16777215
100
AcDbText
 10
716.1770833333333
 20
-265.72779088050316
 30
0.0
 40
1.4345518867924527
  1
==07=031++QP-B1004
100
AcDbText
  0
TEXT
  5
8A
330
17
100
AcDbEntity
  8
HW_TEKST
420
0
100
AcDbText
 10
716.1770833333333
 20
-266.8435534591195
 30
0.0
 40
1.2751572327044025
  1
Niveausensor Motor Pomp Gemaal JS2
100
AcDbText
  0
LWPOLYLINE
  5
8B
330
17
100
AcDbEntity
  8
HW_VELDCOMPONENT
420
0
100
AcDbPolyline
 90
4
 70
1
 10
268.1187106918239
 20
-261.1053459119497
 10
303.18553459119494
 20
-261.1053459119497
 10
303.18553459119494
 20
-273.8569182389937
 10
268.1187106918239
 20
-273.8569182389937
  0
LWPOLYLINE
  5
8C
330
17
100
AcDbEntity
  8
HW_VELDCOMPONENT_HEADER
420
3046706
100
AcDbPolyline
 90
4
 70
1
 10
268.1187106918239
 20
-261.1053459119497
 10
303.18553459119494
 20
-261.1053459119497
 10
303.18553459119494
 20
-266.2059748427673
 10
268.1187106918239
 20
-266.2059748427673
  0
TEXT
  5
8D
330
17
100
AcDbEntity
  8
HW_TEKST
420
16777215
100
AcDbText
 10
268.59689465408803
 20
-265.72779088050316
 30
0.0
 40
1.4345518867924527
  1
==07=031++QP-B1005
100
AcDbText
  0
TEXT
  5
8E
330
17
100
AcDbEntity
  8
HW_TEKST
420
0
100
AcDbText
 10
268.59689465408803
 20
-266.8435534591195
 30
0.0
 40
1.2751572327044025
  1
PT100 Lager KZ Motor Pomp Gemaal JS2
100
AcDbText
  0
LWPOLYLINE
  5
8F
330
17
100
AcDbEntity
  8
HW_VELDCOMPONENT
420
0
100
AcDbPolyline
 90
4
 70
1
 10
299.36006289308176
 20
-261.1053459119497
 10
334.4268867924528
 20
-261.1053459119497
 10
334.4268867924528
 20
-273.8569182389937
 10
299.36006289308176
 20
-273.8569182389937
  0
LWPOLYLINE
  5
90
330
17
100
AcDbEntity
  8
HW_VELDCOMPONENT_HEADER
420
3046706
100
AcDbPolyline
 90
4
 70
1
 10
299.36006289308176
 20
-261.1053459119497
 10
334.4268867924528
 20
-261.1053459119497
 10
334.4268867924528
 20
-266.2059748427673
 10
299.36006289308176
 20
-266.2059748427673
  0
TEXT
  5
91
330
17
100
AcDbEntity
  8
HW_TEKST
420
16777215
100
AcDbText
 10
299.8382468553459
 20
-265.72779088050316
 30
0.0
 40
1.4345518867924527
  1
==07=031++QP-B1006
100
AcDbText
  0
TEXT
  5
92
330
17
100
AcDbEntity
  8
HW_TEKST
420
0
100
AcDbText
 10
299.8382468553459
 20
-266.8435534591195
 30
0.0
 40
1.2751572327044025
  1
PT100 120gr Te Hoog Motor Pomp Gemaal JS2 (A0791B)
100
AcDbText
  0
LWPOLYLINE
  5
93
330
17
100
AcDbEntity
  8
HW_VELDCOMPONENT
420
0
100
AcDbPolyline
 90
4
 70
1
 10
330.6014150943396
 20
-261.1053459119497
 10
365.66823899371064
 20
-261.1053459119497
 10
365.66823899371064
 20
-273.8569182389937
 10
330.6014150943396
 20
-273.8569182389937
  0
LWPOLYLINE
  5
94
330
17
100
AcDbEntity
  8
HW_VELDCOMPONENT_HEADER
420
3046706
100
AcDbPolyline
 90
4
 70
1
 10
330.6014150943396
 20
-261.1053459119497
 10
365.66823899371064
 20
-261.1053459119497
 10
365.66823899371064
 20
-266.2059748427673
 10
330.6014150943396
 20
-266.2059748427673
  0
TEXT
  5
95
330
17
100
AcDbEntity
  8
HW_TEKST
420
16777215
100
AcDbText
 10
331.07959905660374
 20
-265.72779088050316
 30
0.0
 40
1.4345518867924527
  1
==07=031++QP-B1007
100
AcDbText
  0
TEXT
  5
96
330
17
100
AcDbEntity
  8
HW_TEKST
420
0
100
AcDbText
 10
331.07959905660374
 20
-266.8435534591195
 30
0.0
 40
1.2751572327044025
  1
PT100 120gr Te Hoog Motor Pomp Gemaal JS2 (A0794)
100
AcDbText
  0
LWPOLYLINE
  5
97
330
17
100
AcDbEntity
  8
HW_VELDCOMPONENT
420
0
100
AcDbPolyline
 90
4
 70
1
 10
361.84276729559747
 20
-261.1053459119497
 10
396.9095911949685
 20
-261.1053459119497
 10
396.9095911949685
 20
-273.8569182389937
 10
361.84276729559747
 20
-273.8569182389937
  0
LWPOLYLINE
  5
98
330
17
100
AcDbEntity
  8
HW_VELDCOMPONENT_HEADER
420
3046706
100
AcDbPolyline
 90
4
 70
1
 10
361.84276729559747
 20
-261.1053459119497
 10
396.9095911949685
 20
-261.1053459119497
 10
396.9095911949685
 20
-266.2059748427673
 10
361.84276729559747
 20
-266.2059748427673
  0
TEXT
  5
99
330
17
100
AcDbEntity
  8
HW_TEKST
420
16777215
100
AcDbText
 10
362.3209512578616
 20
-265.72779088050316
 30
0.0
 40
1.4345518867924527
  1
==07=031++QP-B1008
100
AcDbText
  0
TEXT
  5
9A
330
17
100
AcDbEntity
  8
HW_TEKST
420
0
100
AcDbText
 10
362.3209512578616
 20
-266.8435534591195
 30
0.0
 40
1.2751572327044025
  1
PT100 120gr Te Hoog Motor Pomp Gemaal JS2 (A0795)
100
AcDbText
  0
LWPOLYLINE
  5
9B
330
17
100
AcDbEntity
  8
HW_VELDCOMPONENT
420
0
100
AcDbPolyline
 90
4
 70
1
 10
393.0841194968553
 20
-261.1053459119497
 10
428.15094339622635
 20
-261.1053459119497
 10
428.15094339622635
 20
-273.8569182389937
 10
393.0841194968553
 20
-273.8569182389937
  0
LWPOLYLINE
  5
9C
330
17
100
AcDbEntity
  8
HW_VELDCOMPONENT_HEADER
420
3046706
100
AcDbPolyline
 90
4
 70
1
 10
393.0841194968553
 20
-261.1053459119497
 10
428.15094339622635
 20
-261.1053459119497
 10
428.15094339622635
 20
-266.2059748427673
 10
393.0841194968553
 20
-266.2059748427673
  0
TEXT
  5
9D
330
17
100
AcDbEntity
  8
HW_TEKST
420
16777215
100
AcDbText
 10
393.56230345911945
 20
-265.72779088050316
 30
0.0
 40
1.4345518867924527
  1
==07=031++QP-B1009
100
AcDbText
  0
TEXT
  5
9E
330
17
100
AcDbEntity
  8
HW_TEKST
420
0
100
AcDbText
 10
393.56230345911945
 20
-266.8435534591195
 30
0.0
 40
1.2751572327044025
  1
PT100 90gr Te Hoog Motor Pomp Gemaal JS2 (A0796)
100
AcDbText
  0
LWPOLYLINE
  5
9F
330
17
100
AcDbEntity
  8
HW_VELDCOMPONENT
420
0
100
AcDbPolyline
 90
4
 70
1
 10
424.3254716981132
 20
-261.1053459119497
 10
459.39229559748424
 20
-261.1053459119497
 10
459.39229559748424
 20
-273.8569182389937
 10
424.3254716981132
 20
-273.8569182389937
  0
LWPOLYLINE
  5
A0
330
17
100
AcDbEntity
  8
HW_VELDCOMPONENT_HEADER
420
3046706
100
AcDbPolyline
 90
4
 70
1
 10
424.3254716981132
 20
-261.1053459119497
 10
459.39229559748424
 20
-261.1053459119497
 10
459.39229559748424
 20
-266.2059748427673
 10
424.3254716981132
 20
-266.2059748427673
  0
TEXT
  5
A1
330
17
100
AcDbEntity
  8
HW_TEKST
420
16777215
100
AcDbText
 10
424.80365566037733
 20
-265.72779088050316
 30
0.0
 40
1.4345518867924527
  1
==07=031++QP-B1010
100
AcDbText
  0
TEXT
  5
A2
330
17
100
AcDbEntity
  8
HW_TEKST
420
0
100
AcDbText
 10
424.80365566037733
 20
-266.8435534591195
 30
0.0
 40
1.2751572327044025
  1
PT100 90gr Te Hoog Motor Pomp Gemaal JS2 (A0797)
100
AcDbText
  0
LWPOLYLINE
  5
A3
330
17
100
AcDbEntity
  8
HW_VELDCOMPONENT
420
0
100
AcDbPolyline
 90
4
 70
1
 10
455.56682389937106
 20
-261.1053459119497
 10
490.6336477987421
 20
-261.1053459119497
 10
490.6336477987421
 20
-273.8569182389937
 10
455.56682389937106
 20
-273.8569182389937
  0
LWPOLYLINE
  5
A4
330
17
100
AcDbEntity
  8
HW_VELDCOMPONENT_HEADER
420
3046706
100
AcDbPolyline
 90
4
 70
1
 10
455.56682389937106
 20
-261.1053459119497
 10
490.6336477987421
 20
-261.1053459119497
 10
490.6336477987421
 20
-266.2059748427673
 10
455.56682389937106
 20
-266.2059748427673
  0
TEXT
  5
A5
330
17
100
AcDbEntity
  8
HW_TEKST
420
16777215
100
AcDbText
 10
456.0450078616352
 20
-265.72779088050316
 30
0.0
 40
1.4345518867924527
  1
==07=031++QP-B1011
100
AcDbText
  0
TEXT
  5
A6
330
17
100
AcDbEntity
  8
HW_TEKST
420
0
100
AcDbText
 10
456.0450078616352
 20
-266.8435534591195
 30
0.0
 40
1.2751572327044025
  1
PT100 90gr Te Hoog Motor Pomp Gemaal JS2 (A0798)
100
AcDbText
  0
LWPOLYLINE
  5
A7
330
17
100
AcDbEntity
  8
HW_VELDCOMPONENT
420
0
100
AcDbPolyline
 90
4
 70
1
 10
486.8081761006289
 20
-261.1053459119497
 10
521.875
 20
-261.1053459119497
 10
521.875
 20
-273.8569182389937
 10
486.8081761006289
 20
-273.8569182389937
  0
LWPOLYLINE
  5
A8
330
17
100
AcDbEntity
  8
HW_VELDCOMPONENT_HEADER
420
3046706
100
AcDbPolyline
 90
4
 70
1
 10
486.8081761006289
 20
-261.1053459119497
 10
521.875
 20
-261.1053459119497
 10
521.875
 20
-266.2059748427673
 10
486.8081761006289
 20
-266.2059748427673
  0
TEXT
  5
A9
330
17
100
AcDbEntity
  8
HW_TEKST
420
16777215
100
AcDbText
 10
487.28636006289304
 20
-265.72779088050316
 30
0.0
 40
1.4345518867924527
  1
==07=031++QP-B1012
100
AcDbText
  0
TEXT
  5
AA
330
17
100
AcDbEntity
  8
HW_TEKST
420
0
100
AcDbText
 10
487.28636006289304
 20
-266.8435534591195
 30
0.0
 40
1.2751572327044025
  1
Vochtdetectie Stator Motor Pomp Gemaal JS2 (A0772)
100
AcDbText
  0
LWPOLYLINE
  5
AB
330
17
100
AcDbEntity
  8
HW_VELDCOMPONENT
420
0
100
AcDbPolyline
 90
4
 70
1
 10
518.0495283018868
 20
-261.1053459119497
 10
553.1163522012579
 20
-261.1053459119497
 10
553.1163522012579
 20
-273.8569182389937
 10
518.0495283018868
 20
-273.8569182389937
  0
LWPOLYLINE
  5
AC
330
17
100
AcDbEntity
  8
HW_VELDCOMPONENT_HEADER
420
3046706
100
AcDbPolyline
 90
4
 70
1
 10
518.0495283018868
 20
-261.1053459119497
 10
553.1163522012579
 20
-261.1053459119497
 10
553.1163522012579
 20
-266.2059748427673
 10
518.0495283018868
 20
-266.2059748427673
  0
TEXT
  5
AD
330
17
100
AcDbEntity
  8
HW_TEKST
420
16777215
100
AcDbText
 10
518.5277122641509
 20
-265.72779088050316
 30
0.0
 40
1.4345518867924527
  1
==07=031++QP-B1013
100
AcDbText
  0
TEXT
  5
AE
330
17
100
AcDbEntity
  8
HW_TEKST
420
0
100
AcDbText
 10
518.5277122641509
 20
-266.8435534591195
 30
0.0
 40
1.2751572327044025
  1
Vochtdetectie Stator Motor Pomp Gemaal JS2 (A0773)
100
AcDbText
  0
LWPOLYLINE
  5
AF
330
17
100
AcDbEntity
  8
HW_VELDCOMPONENT
420
0
100
AcDbPolyline
 90
4
 70
1
 10
549.2908805031446
 20
-261.1053459119497
 10
584.3577044025158
 20
-261.1053459119497
 10
584.3577044025158
 20
-273.8569182389937
 10
549.2908805031446
 20
-273.8569182389937
  0
LWPOLYLINE
  5
B0
330
17
100
AcDbEntity
  8
HW_VELDCOMPONENT_HEADER
420
3046706
100
AcDbPolyline
 90
4
 70
1
 10
549.2908805031446
 20
-261.1053459119497
 10
584.3577044025158
 20
-261.1053459119497
 10
584.3577044025158
 20
-266.2059748427673
 10
549.2908805031446
 20
-266.2059748427673
  0
TEXT
  5
B1
330
17
100
AcDbEntity
  8
HW_TEKST
420
16777215
100
AcDbText
 10
549.7690644654087
 20
-265.72779088050316
 30
0.0
 40
1.4345518867924527
  1
==07=031++QP-B1014
100
AcDbText
  0
TEXT
  5
B2
330
17
100
AcDbEntity
  8
HW_TEKST
420
0
100
AcDbText
 10
549.7690644654087
 20
-266.8435534591195
 30
0.0
 40
1.2751572327044025
  1
Tandwielkast Olietemp Te Hoog Pomp Gemaal JS2 (A0687)
100
AcDbText
  0
LWPOLYLINE
  5
B3
330
17
100
AcDbEntity
  8
HW_VELDCOMPONENT
420
0
100
AcDbPolyline
 90
4
 70
1
 10
580.5322327044025
 20
-261.1053459119497
 10
615.5990566037736
 20
-261.1053459119497
 10
615.5990566037736
 20
-273.8569182389937
 10
580.5322327044025
 20
-273.8569182389937
  0
LWPOLYLINE
  5
B4
330
17
100
AcDbEntity
  8
HW_VELDCOMPONENT_HEADER
420
3046706
100
AcDbPolyline
 90
4
 70
1
 10
580.5322327044025
 20
-261.1053459119497
 10
615.5990566037736
 20
-261.1053459119497
 10
615.5990566037736
 20
-266.2059748427673
 10
580.5322327044025
 20
-266.2059748427673
  0
TEXT
  5
B5
330
17
100
AcDbEntity
  8
HW_TEKST
420
16777215
100
AcDbText
 10
581.0104166666666
 20
-265.72779088050316
 30
0.0
 40
1.4345518867924527
  1
==07=031++QP-B1015
100
AcDbText
  0
TEXT
  5
B6
330
17
100
AcDbEntity
  8
HW_TEKST
420
0
100
AcDbText
 10
581.0104166666666
 20
-266.8435534591195
 30
0.0
 40
1.2751572327044025
  1
Tandwielkast Olietemp Te Hoog Pomp Gemaal JS2 (A0688)
100
AcDbText
  0
LWPOLYLINE
  5
B7
330
17
100
AcDbEntity
  8
HW_VELDCOMPONENT
420
0
100
AcDbPolyline
 90
4
 70
1
 10
611.7735849056603
 20
-261.1053459119497
 10
646.8404088050314
 20
-261.1053459119497
 10
646.8404088050314
 20
-273.8569182389937
 10
611.7735849056603
 20
-273.8569182389937
  0
LWPOLYLINE
  5
B8
330
17
100
AcDbEntity
  8
HW_VELDCOMPONENT_HEADER
420
3046706
100
AcDbPolyline
 90
4
 70
1
 10
611.7735849056603
 20
-261.1053459119497
 10
646.8404088050314
 20
-261.1053459119497
 10
646.8404088050314
 20
-266.2059748427673
 10
611.7735849056603
 20
-266.2059748427673
  0
TEXT
  5
B9
330
17
100
AcDbEntity
  8
HW_TEKST
420
16777215
100
AcDbText
 10
612.2517688679244
 20
-265.72779088050316
 30
0.0
 40
1.4345518867924527
  1
==07=031++QP-B1016
100
AcDbText
  0
TEXT
  5
BA
330
17
100
AcDbEntity
  8
HW_TEKST
420
0
100
AcDbText
 10
612.2517688679244
 20
-266.8435534591195
 30
0.0
 40
1.2751572327044025
  1
Water in Tandwielkast Motor Pomp Gemaal JS2 (A0775)
100
AcDbText
  0
LWPOLYLINE
  5
BB
330
17
100
AcDbEntity
  8
HW_VELDCOMPONENT
420
0
100
AcDbPolyline
 90
4
 70
1
 10
643.0149371069182
 20
-261.1053459119497
 10
678.0817610062893
 20
-261.1053459119497
 10
678.0817610062893
 20
-273.8569182389937
 10
643.0149371069182
 20
-273.8569182389937
  0
LWPOLYLINE
  5
BC
330
17
100
AcDbEntity
  8
HW_VELDCOMPONENT_HEADER
420
3046706
100
AcDbPolyline
 90
4
 70
1
 10
643.0149371069182
 20
-261.1053459119497
 10
678.0817610062893
 20
-261.1053459119497
 10
678.0817610062893
 20
-266.2059748427673
 10
643.0149371069182
 20
-266.2059748427673
  0
TEXT
  5
BD
330
17
100
AcDbEntity
  8
HW_TEKST
420
16777215
100
AcDbText
 10
643.4931210691823
 20
-265.72779088050316
 30
0.0
 40
1.4345518867924527
  1
==07=031++QP-B1017
100
AcDbText
  0
TEXT
  5
BE
330
17
100
AcDbEntity
  8
HW_TEKST
420
0
100
AcDbText
 10
643.4931210691823
 20
-266.8435534591195
 30
0.0
 40
1.2751572327044025
  1
Olieniveau Min Tandwielkast Gemaal JS2 (A0776)
100
AcDbText
  0
LWPOLYLINE
  5
BF
330
17
100
AcDbEntity
  8
HW_VELDCOMPONENT
420
0
100
AcDbPolyline
 90
4
 70
1
 10
674.2562893081761
 20
-261.1053459119497
 10
709.3231132075472
 20
-261.1053459119497
 10
709.3231132075472
 20
-273.8569182389937
 10
674.2562893081761
 20
-273.8569182389937
  0
LWPOLYLINE
  5
C0
330
17
100
AcDbEntity
  8
HW_VELDCOMPONENT_HEADER
420
3046706
100
AcDbPolyline
 90
4
 70
1
 10
674.2562893081761
 20
-261.1053459119497
 10
709.3231132075472
 20
-261.1053459119497
 10
709.3231132075472
 20
-266.2059748427673
 10
674.2562893081761
 20
-266.2059748427673
  0
TEXT
  5
C1
330
17
100
AcDbEntity
  8
HW_TEKST
420
16777215
100
AcDbText
 10
674.7344732704402
 20
-265.72779088050316
 30
0.0
 40
1.4345518867924527
  1
==07=031++QP-B1018
100
AcDbText
  0
TEXT
  5
C2
330
17
100
AcDbEntity
  8
HW_TEKST
420
0
100
AcDbText
 10
674.7344732704402
 20
-266.8435534591195
 30
0.0
 40
1.2751572327044025
  1
Olieniveau Onder Normaal Tandwielkast Gemaal JS2 (A0777)
100
AcDbText
  0
LWPOLYLINE
  5
C3
330
17
100
AcDbEntity
  8
HW_VELDCOMPONENT
420
0
100
AcDbPolyline
 90
4
 70
1
 10
752.0408805031446
 20
-261.1053459119497
 10
787.1077044025158
 20
-261.1053459119497
 10
787.1077044025158
 20
-273.8569182389937
 10
752.0408805031446
 20
-273.8569182389937
  0
LWPOLYLINE
  5
C4
330
17
100
AcDbEntity
  8
HW_VELDCOMPONENT_HEADER
420
3046706
100
AcDbPolyline
 90
4
 70
1
 10
752.0408805031446
 20
-261.1053459119497
 10
787.1077044025158
 20
-261.1053459119497
 10
787.1077044025158
 20
-266.2059748427673
 10
752.0408805031446
 20
-266.2059748427673
  0
TEXT
  5
C5
330
17
100
AcDbEntity
  8
HW_TEKST
420
16777215
100
AcDbText
 10
752.5190644654087
 20
-265.72779088050316
 30
0.0
 40
1.4345518867924527
  1
==07=031++QP-R1002
100
AcDbText
  0
TEXT
  5
C6
330
17
100
AcDbEntity
  8
HW_TEKST
420
0
100
AcDbText
 10
752.5190644654087
 20
-266.8435534591195
 30
0.0
 40
1.2751572327044025
  1
Niveausensor Motor Pomp Gemaal JS2
100
AcDbText
  0
LWPOLYLINE
  5
C7
330
17
100
AcDbEntity
  8
HW_VERBINDING
370
18
420
5263440
100
AcDbPolyline
 90
4
 70
0
 10
660.5483490566037
 20
-273.8569182389937
 10
660.5483490566037
 20
-253.13561320754718
 10
218.0687893081761
 20
-253.13561320754718
 10
218.0687893081761
 20
-232.41430817610063
  0
TEXT
  5
C8
330
17
100
AcDbEntity
  8
HW_TEKST
420
3947580
100
AcDbText
 10
439.786753144654
 20
-252.65742924528303
 30
0.0
 40
1.1157625786163523
  1
==07=031-W5234 signaal
100
AcDbText
  0
LWPOLYLINE
  5
C9
330
17
100
AcDbEntity
  8
HW_VERBINDING
370
18
420
5263440
100
AcDbPolyline
 90
4
 70
0
 10
254.41077044025155
 20
-273.8569182389937
 10
254.41077044025155
 20
-253.13561320754718
 10
218.0687893081761
 20
-253.13561320754718
 10
218.0687893081761
 20
-232.41430817610063
  0
TEXT
  5
CA
330
17
100
AcDbEntity
  8
HW_TEKST
420
3947580
100
AcDbText
 10
236.71796383647796
 20
-252.65742924528303
 30
0.0
 40
1.1157625786163523
  1
==07=031-W5228 signaal
100
AcDbText
  0
LWPOLYLINE
  5
CB
330
17
100
AcDbEntity
  8
HW_VERBINDING
370
18
420
5263440
100
AcDbPolyline
 90
4
 70
0
 10
535.5829402515723
 20
-273.8569182389937
 10
535.5829402515723
 20
-253.13561320754718
 10
218.0687893081761
 20
-253.13561320754718
 10
218.0687893081761
 20
-232.41430817610063
  0
TEXT
  5
CC
330
17
100
AcDbEntity
  8
HW_TEKST
420
3947580
100
AcDbText
 10
377.3040487421384
 20
-252.65742924528303
 30
0.0
 40
1.1157625786163523
  1
==07=031-W5230 signaal
100
AcDbText
  0
LWPOLYLINE
  5
CD
330
17
100
AcDbEntity
  8
HW_VERBINDING
370
18
420
5263440
100
AcDbPolyline
 90
4
 70
0
 10
41.459512578616355
 20
-97.56643081761007
 10
41.459512578616355
 20
-164.99036949685535
 10
77.80149371069182
 20
-164.99036949685535
 10
77.80149371069182
 20
-232.41430817610063
  0
TEXT
  5
CE
330
17
100
AcDbEntity
  8
HW_TEKST
420
3947580
100
AcDbText
 10
60.10868710691824
 20
-164.5121855345912
 30
0.0
 40
1.1157625786163523
  1
==07=009-W6009 signaal
100
AcDbText
  0
LWPOLYLINE
  5
CF
330
17
100
AcDbEntity
  8
HW_VERBINDING
370
18
420
5263440
100
AcDbPolyline
 90
4
 70
0
 10
145.38482704402517
 20
-245.16588050314465
 10
145.38482704402517
 20
-253.13561320754718
 10
181.72680817610063
 20
-253.13561320754718
 10
181.72680817610063
 20
-261.1053459119497
  0
TEXT
  5
D0
330
17
100
AcDbEntity
  8
HW_TEKST
420
3947580
100
AcDbText
 10
164.03400157232704
 20
-252.65742924528303
 30
0.0
 40
1.1157625786163523
  1
==07=031-W2206 voeding
100
AcDbText
  0
LWPOLYLINE
  5
D1
330
17
100
AcDbEntity
  8
HW_VERBINDING
370
18
420
5263440
100
AcDbPolyline
 90
4
 70
0
 10
41.459512578616355
 20
-97.56643081761007
 10
41.459512578616355
 20
-179.3358883647799
 10
181.72680817610063
 20
-179.3358883647799
 10
181.72680817610063
 20
-261.1053459119497
  0
TEXT
  5
D2
330
17
100
AcDbEntity
  8
HW_TEKST
420
3947580
100
AcDbText
 10
112.07134433962266
 20
-178.85770440251574
 30
0.0
 40
1.1157625786163523
  1
==07=031-W9201 voeding
100
AcDbText
  0
LWPOLYLINE
  5
D3
330
17
100
AcDbEntity
  8
HW_VERBINDING
370
18
420
5263440
100
AcDbPolyline
 90
4
 70
0
 10
348.13482704402514
 20
-273.8569182389937
 10
348.13482704402514
 20
-253.13561320754718
 10
218.0687893081761
 20
-253.13561320754718
 10
218.0687893081761
 20
-232.41430817610063
  0
TEXT
  5
D4
330
17
100
AcDbEntity
  8
HW_TEKST
420
3947580
100
AcDbText
 10
283.5799921383648
 20
-252.65742924528303
 30
0.0
 40
1.1157625786163523
  1
==07=031-W5023 signaal
100
AcDbText
  0
LWPOLYLINE
  5
D5
330
17
100
AcDbEntity
  8
HW_VERBINDING
370
18
420
5263440
100
AcDbPolyline
 90
4
 70
0
 10
441.85888364779873
 20
-273.8569182389937
 10
441.85888364779873
 20
-253.13561320754718
 10
218.0687893081761
 20
-253.13561320754718
 10
218.0687893081761
 20
-232.41430817610063
  0
TEXT
  5
D6
330
17
100
AcDbEntity
  8
HW_TEKST
420
3947580
100
AcDbText
 10
330.44202044025155
 20
-252.65742924528303
 30
0.0
 40
1.1157625786163523
  1
==07=031-W5226 signaal
100
AcDbText
  0
LWPOLYLINE
  5
D7
330
17
100
AcDbEntity
  8
HW_VERBINDING
370
18
420
5263440
100
AcDbPolyline
 90
4
 70
0
 10
769.5742924528302
 20
-273.8569182389937
 10
769.5742924528302
 20
-193.6814072327044
 10
114.14347484276729
 20
-193.6814072327044
 10
114.14347484276729
 20
-113.50589622641509
  0
TEXT
  5
D8
330
17
100
AcDbEntity
  8
HW_TEKST
420
3947580
100
AcDbText
 10
442.3370676100629
 20
-193.20322327044025
 30
0.0
 40
1.1157625786163523
  1
==07=031-W2209 voeding
100
AcDbText
  0
LWPOLYLINE
  5
D9
330
17
100
AcDbEntity
  8
HW_VERBINDING
370
18
420
5263440
100
AcDbPolyline
 90
4
 70
0
 10
629.3069968553458
 20
-273.8569182389937
 10
629.3069968553458
 20
-253.13561320754718
 10
218.0687893081761
 20
-253.13561320754718
 10
218.0687893081761
 20
-232.41430817610063
  0
TEXT
  5
DA
330
17
100
AcDbEntity
  8
HW_TEKST
420
3947580
100
AcDbText
 10
424.16607704402514
 20
-252.65742924528303
 30
0.0
 40
1.1157625786163523
  1
==07=031-W5033 signaal
100
AcDbText
  0
LWPOLYLINE
  5
DB
330
17
100
AcDbEntity
  8
HW_VERBINDING
370
18
420
5263440
100
AcDbPolyline
 90
4
 70
0
 10
285.65212264150944
 20
-273.8569182389937
 10
285.65212264150944
 20
-253.13561320754718
 10
218.0687893081761
 20
-253.13561320754718
 10
218.0687893081761
 20
-232.41430817610063
  0
TEXT
  5
DC
330
17
100
AcDbEntity
  8
HW_TEKST
420
3947580
100
AcDbText
 10
252.3386399371069
 20
-252.65742924528303
 30
0.0
 40
1.1157625786163523
  1
==07=031-W5021 signaal
100
AcDbText
  0
LWPOLYLINE
  5
DD
330
17
100
AcDbEntity
  8
HW_VERBINDING
370
18
420
5263440
100
AcDbPolyline
 90
4
 70
0
 10
114.14347484276729
 20
-126.25746855345912
 10
114.14347484276729
 20
-193.68140723270443
 10
733.2323113207547
 20
-193.68140723270443
 10
733.2323113207547
 20
-261.1053459119497
  0
TEXT
  5
DE
330
17
100
AcDbEntity
  8
HW_TEKST
420
3947580
100
AcDbText
 10
424.16607704402514
 20
-193.20322327044028
 30
0.0
 40
1.1157625786163523
  1
==07=031-W5212 signaal
100
AcDbText
  0
LWPOLYLINE
  5
DF
330
17
100
AcDbEntity
  8
HW_VERBINDING
370
18
420
5263440
100
AcDbPolyline
 90
4
 70
0
 10
598.065644654088
 20
-273.8569182389937
 10
598.065644654088
 20
-253.13561320754718
 10
218.0687893081761
 20
-253.13561320754718
 10
218.0687893081761
 20
-232.41430817610063
  0
TEXT
  5
E0
330
17
100
AcDbEntity
  8
HW_TEKST
420
3947580
100
AcDbText
 10
408.54540094339626
 20
-252.65742924528303
 30
0.0
 40
1.1157625786163523
  1
==07=031-W5232 signaal
100
AcDbText
  0
LWPOLYLINE
  5
E1
330
17
100
AcDbEntity
  8
HW_VERBINDING
370
18
420
5263440
100
AcDbPolyline
 90
4
 70
0
 10
504.34158805031444
 20
-273.8569182389937
 10
504.34158805031444
 20
-253.13561320754718
 10
218.0687893081761
 20
-253.13561320754718
 10
218.0687893081761
 20
-232.41430817610063
  0
TEXT
  5
E2
330
17
100
AcDbEntity
  8
HW_TEKST
420
3947580
100
AcDbText
 10
361.6833726415094
 20
-252.65742924528303
 30
0.0
 40
1.1157625786163523
  1
==07=031-W5029 signaal
100
AcDbText
  0
LWPOLYLINE
  5
E3
330
17
100
AcDbEntity
  8
HW_VERBINDING
370
18
420
5263440
100
AcDbPolyline
 90
4
 70
0
 10
566.8242924528302
 20
-273.8569182389937
 10
566.8242924528302
 20
-253.13561320754718
 10
218.0687893081761
 20
-253.13561320754718
 10
218.0687893081761
 20
-232.41430817610063
  0
TEXT
  5
E4
330
17
100
AcDbEntity
  8
HW_TEKST
420
3947580
100
AcDbText
 10
392.92472484276726
 20
-252.65742924528303
 30
0.0
 40
1.1157625786163523
  1
==07=031-W5031 signaal
100
AcDbText
  0
LWPOLYLINE
  5
E5
330
17
100
AcDbEntity
  8
HW_VERBINDING
370
18
420
5263440
100
AcDbPolyline
 90
4
 70
0
 10
316.8934748427673
 20
-273.8569182389937
 10
316.8934748427673
 20
-253.13561320754718
 10
218.0687893081761
 20
-253.13561320754718
 10
218.0687893081761
 20
-232.41430817610063
  0
TEXT
  5
E6
330
17
100
AcDbEntity
  8
HW_TEKST
420
3947580
100
AcDbText
 10
267.95931603773585
 20
-252.65742924528303
 30
0.0
 40
1.1157625786163523
  1
==07=031-W5222 signaal
100
AcDbText
  0
LWPOLYLINE
  5
E7
330
17
100
AcDbEntity
  8
HW_VERBINDING
370
18
420
5263440
100
AcDbPolyline
 90
4
 70
0
 10
805.9162735849056
 20
-273.8569182389937
 10
805.9162735849056
 20
-193.6814072327044
 10
114.14347484276729
 20
-193.6814072327044
 10
114.14347484276729
 20
-113.50589622641509
  0
TEXT
  5
E8
330
17
100
AcDbEntity
  8
HW_TEKST
420
3947580
100
AcDbText
 10
460.50805817610063
 20
-193.20322327044025
 30
0.0
 40
1.1157625786163523
  1
==07=031-W5215 signaal
100
AcDbText
  0
LWPOLYLINE
  5
E9
330
17
100
AcDbEntity
  8
HW_VERBINDING
370
18
420
5263440
100
AcDbPolyline
 90
4
 70
0
 10
145.38482704402517
 20
-245.16588050314465
 10
145.38482704402517
 20
-179.33588836477986
 10
114.14347484276729
 20
-179.33588836477986
 10
114.14347484276729
 20
-113.50589622641509
  0
TEXT
  5
EA
330
17
100
AcDbEntity
  8
HW_TEKST
420
3947580
100
AcDbText
 10
130.24233490566039
 20
-178.8577044025157
 30
0.0
 40
1.1157625786163523
  1
==07=031-W5207 signaal
100
AcDbText
  0
LWPOLYLINE
  5
EB
330
17
100
AcDbEntity
  8
HW_VERBINDING
370
18
420
5263440
100
AcDbPolyline
 90
4
 70
0
 10
77.80149371069182
 20
-245.16588050314465
 10
77.80149371069182
 20
-179.33588836477986
 10
114.14347484276729
 20
-179.33588836477986
 10
114.14347484276729
 20
-113.50589622641509
  0
TEXT
  5
EC
330
17
100
AcDbEntity
  8
HW_TEKST
420
3947580
100
AcDbText
 10
96.4506682389937
 20
-178.8577044025157
 30
0.0
 40
1.1157625786163523
  1
==07=009-W6008 signaal
100
AcDbText
  0
LWPOLYLINE
  5
ED
330
17
100
AcDbEntity
  8
HW_VERBINDING
370
18
420
5263440
100
AcDbPolyline
 90
4
 70
0
 10
473.1002358490566
 20
-273.8569182389937
 10
473.1002358490566
 20
-253.13561320754718
 10
218.0687893081761
 20
-253.13561320754718
 10
218.0687893081761
 20
-232.41430817610063
  0
TEXT
  5
EE
330
17
100
AcDbEntity
  8
HW_TEKST
420
3947580
100
AcDbText
 10
346.0626965408805
 20
-252.65742924528303
 30
0.0
 40
1.1157625786163523
  1
==07=031-W5027 signaal
100
AcDbText
  0
LWPOLYLINE
  5
EF
330
17
100
AcDbEntity
  8
HW_VERBINDING
370
18
420
5263440
100
AcDbPolyline
 90
4
 70
0
 10
691.7897012578616
 20
-273.8569182389937
 10
691.7897012578616
 20
-253.13561320754718
 10
218.0687893081761
 20
-253.13561320754718
 10
218.0687893081761
 20
-232.41430817610063
  0
TEXT
  5
F0
330
17
100
AcDbEntity
  8
HW_TEKST
420
3947580
100
AcDbText
 10
455.407429245283
 20
-252.65742924528303
 30
0.0
 40
1.1157625786163523
  1
==07=031-W5035 signaal
100
AcDbText
  0
LWPOLYLINE
  5
F1
330
17
100
AcDbEntity
  8
HW_VERBINDING
370
18
420
5263440
100
AcDbPolyline
 90
4
 70
0
 10
379.376179245283
 20
-273.8569182389937
 10
379.376179245283
 20
-253.13561320754718
 10
218.0687893081761
 20
-253.13561320754718
 10
218.0687893081761
 20
-232.41430817610063
  0
TEXT
  5
F2
330
17
100
AcDbEntity
  8
HW_TEKST
420
3947580
100
AcDbText
 10
299.2006682389937
 20
-252.65742924528303
 30
0.0
 40
1.1157625786163523
  1
==07=031-W5224 signaal
100
AcDbText
  0
LWPOLYLINE
  5
F3
330
17
100
AcDbEntity
  8
HW_VERBINDING
370
18
420
5263440
100
AcDbPolyline
 90
4
 70
0
 10
238.47130503144655
 20
-40.18435534591195
 10
238.47130503144655
 20
-62.499606918238996
 10
41.459512578616355
 20
-62.499606918238996
 10
41.459512578616355
 20
-84.81485849056604
  0
TEXT
  5
F4
330
17
100
AcDbEntity
  8
HW_TEKST
420
3947580
100
AcDbText
 10
140.44359276729563
 20
-62.02142295597484
 30
0.0
 40
1.1157625786163523
  1
==07=031-W2202 voeding
100
AcDbText
  0
LWPOLYLINE
  5
F5
330
17
100
AcDbEntity
  8
HW_VERBINDING
370
18
420
5263440
100
AcDbPolyline
 90
4
 70
0
 10
41.459512578616355
 20
-97.56643081761007
 10
41.459512578616355
 20
-105.53616352201257
 10
114.14347484276729
 20
-105.53616352201257
 10
114.14347484276729
 20
-113.50589622641509
  0
TEXT
  5
F6
330
17
100
AcDbEntity
  8
HW_TEKST
420
3947580
100
AcDbText
 10
78.27967767295598
 20
-105.05797955974842
 30
0.0
 40
1.1157625786163523
  1
==07=031-W2203 voeding
100
AcDbText
  0
LWPOLYLINE
  5
F7
330
17
100
AcDbEntity
  8
HW_VERBINDING
370
18
420
5263440
100
AcDbPolyline
 90
4
 70
0
 10
150.48545597484275
 20
-273.8569182389937
 10
150.48545597484275
 20
-253.13561320754718
 10
145.38482704402517
 20
-253.13561320754718
 10
145.38482704402517
 20
-232.41430817610063
  0
TEXT
  5
F8
330
17
100
AcDbEntity
  8
HW_TEKST
420
3947580
100
AcDbText
 10
148.4133254716981
 20
-252.65742924528303
 30
0.0
 40
1.1157625786163523
  1
==07=031-W5208 signaal
100
AcDbText
  0
LWPOLYLINE
  5
F9
330
17
100
AcDbEntity
  8
HW_VERBINDING
370
18
420
5263440
100
AcDbPolyline
 90
4
 70
0
 10
223.1694182389937
 20
-273.8569182389937
 10
223.1694182389937
 20
-253.13561320754718
 10
218.0687893081761
 20
-253.13561320754718
 10
218.0687893081761
 20
-232.41430817610063
  0
TEXT
  5
FA
330
17
100
AcDbEntity
  8
HW_TEKST
420
3947580
100
AcDbText
 10
221.09728773584905
 20
-252.65742924528303
 30
0.0
 40
1.1157625786163523
  1
==07=031-W5220 signaal
100
AcDbText
  0
LWPOLYLINE
  5
FB
330
17
100
AcDbEntity
  8
HW_VERBINDING
370
18
420
5263440
100
AcDbPolyline
 90
4
 70
0
 10
36.35888364779874
 20
-40.18435534591195
 10
36.35888364779874
 20
-62.499606918238996
 10
41.459512578616355
 20
-62.499606918238996
 10
41.459512578616355
 20
-84.81485849056604
  0
TEXT
  5
FC
330
17
100
AcDbEntity
  8
HW_TEKST
420
3947580
100
AcDbText
 10
39.387382075471706
 20
-62.02142295597484
 30
0.0
 40
1.1157625786163523
  1
==07=031-W2201 voeding
100
AcDbText
  0
LWPOLYLINE
  5
FD
330
17
100
AcDbEntity
  8
HW_VERBINDING
370
18
420
5263440
100
AcDbPolyline
 90
4
 70
0
 10
41.459512578616355
 20
-97.56643081761007
 10
41.459512578616355
 20
-164.99036949685535
 10
145.38482704402517
 20
-164.99036949685535
 10
145.38482704402517
 20
-232.41430817610063
  0
TEXT
  5
FE
330
17
100
AcDbEntity
  8
HW_TEKST
420
3947580
100
AcDbText
 10
93.90035377358492
 20
-164.5121855345912
 30
0.0
 40
1.1157625786163523
  1
==07=031-W2204 voeding
100
AcDbText
  0
LWPOLYLINE
  5
FF
330
17
100
AcDbEntity
  8
HW_VERBINDING
370
18
420
5263440
100
AcDbPolyline
 90
4
 70
0
 10
410.61753144654085
 20
-273.8569182389937
 10
410.61753144654085
 20
-253.13561320754718
 10
218.0687893081761
 20
-253.13561320754718
 10
218.0687893081761
 20
-232.41430817610063
  0
TEXT
  5
100
330
17
100
AcDbEntity
  8
HW_TEKST
420
3947580
100
AcDbText
 10
314.8213443396226
 20
-252.65742924528303
 30
0.0
 40
1.1157625786163523
  1
==07=031-W5025 signaal
100
AcDbText
  0
LWPOLYLINE
  5
101
330
17
100
AcDbEntity
  8
HW_VERBINDING
370
18
420
5263440
100
AcDbPolyline
 90
4
 70
0
 10
202.12932389937106
 20
-68.875393081761
 10
202.12932389937106
 20
-76.84512578616352
 10
41.459512578616355
 20
-76.84512578616352
 10
41.459512578616355
 20
-84.81485849056604
  0
TEXT
  5
102
330
17
100
AcDbEntity
  8
HW_TEKST
420
3947580
100
AcDbText
 10
122.27260220125787
 20
-76.36694182389937
 30
0.0
 40
1.1157625786163523
  1
==12=006-W4631 voeding
100
AcDbText
  0
LWPOLYLINE
  5
103
330
17
100
AcDbEntity
  8
HW_VERBINDING
370
18
420
5263440
100
AcDbPolyline
 90
4
 70
0
 10
114.14347484276729
 20
-216.4748427672956
 10
114.14347484276729
 20
-150.6448506289308
 10
41.459512578616355
 20
-150.6448506289308
 10
41.459512578616355
 20
-84.81485849056604
  0
TEXT
  5
104
330
17
100
AcDbEntity
  8
HW_TEKST
420
3947580
100
AcDbText
 10
78.27967767295598
 20
-150.16666666666666
 30
0.0
 40
1.1157625786163523
  1
==12=006-W4632 voeding
100
AcDbText
  0
LWPOLYLINE
  5
105
330
17
100
AcDbEntity
  8
HW_VERBINDING
370
18
420
5263440
100
AcDbPolyline
 90
4
 70
0
 10
82.90212264150942
 20
-68.875393081761
 10
82.90212264150942
 20
-76.84512578616352
 10
41.459512578616355
 20
-76.84512578616352
 10
41.459512578616355
 20
-84.81485849056604
  0
TEXT
  5
106
330
17
100
AcDbEntity
  8
HW_TEKST
420
3947580
100
AcDbText
 10
62.65900157232704
 20
-76.36694182389937
 30
0.0
 40
1.1157625786163523
  1
==07=031-W2210 voeding
100
AcDbText
  0
LWPOLYLINE
  5
107
330
17
100
AcDbEntity
  8
HW_VERBINDING
370
18
420
5263440
100
AcDbPolyline
 90
4
 70
0
 10
109.04284591194968
 20
-97.56643081761007
 10
109.04284591194968
 20
-105.53616352201257
 10
114.14347484276729
 20
-105.53616352201257
 10
114.14347484276729
 20
-113.50589622641509
  0
TEXT
  5
108
330
17
100
AcDbEntity
  8
HW_TEKST
420
3947580
100
AcDbText
 10
112.07134433962264
 20
-105.05797955974842
 30
0.0
 40
1.1157625786163523
  1
==07=009-W6007 signaal
100
AcDbText
  0
LWPOLYLINE
  5
109
330
17
100
AcDbEntity
  8
HW_VERBINDING
370
18
420
5263440
100
AcDbPolyline
 90
4
 70
0
 10
41.459512578616355
 20
-97.56643081761007
 10
41.459512578616355
 20
-164.99036949685535
 10
145.38482704402517
 20
-164.99036949685535
 10
145.38482704402517
 20
-232.41430817610063
  0
TEXT
  5
10A
330
17
100
AcDbEntity
  8
HW_TEKST
420
3947580
100
AcDbText
 10
93.90035377358492
 20
-164.5121855345912
 30
0.0
 40
1.1157625786163523
  1
==07=031-W2205 voeding
100
AcDbText
  0
LWPOLYLINE
  5
10B
330
17
100
AcDbEntity
  8
HW_VERBINDING
370
18
420
5263440
100
AcDbPolyline
 90
4
 70
0
 10
145.38482704402517
 20
-245.16588050314465
 10
145.38482704402517
 20
-253.13561320754718
 10
150.48545597484275
 20
-253.13561320754718
 10
150.48545597484275
 20
-261.1053459119497
  0
TEXT
  5
10C
330
17
100
AcDbEntity
  8
HW_TEKST
420
3947580
100
AcDbText
 10
148.4133254716981
 20
-252.65742924528303
 30
0.0
 40
1.1157625786163523
  1
==07=031-W2207 voeding
100
AcDbText
  0
LWPOLYLINE
  5
10D
330
17
100
AcDbEntity
  8
HW_VERBINDING
370
18
420
5263440
100
AcDbPolyline
 90
4
 70
0
 10
41.459512578616355
 20
-216.4748427672956
 10
41.459512578616355
 20
-164.99036949685535
 10
114.14347484276729
 20
-164.99036949685535
 10
114.14347484276729
 20
-113.50589622641509
  0
TEXT
  5
10E
330
17
100
AcDbEntity
  8
HW_TEKST
420
3947580
100
AcDbText
 10
78.27967767295598
 20
-164.5121855345912
 30
0.0
 40
1.1157625786163523
  1
==12=006-W4653 signaal
100
AcDbText
  0
LWPOLYLINE
  5
10F
330
17
100
AcDbEntity
  8
HW_VERBINDING
370
18
420
5263440
100
AcDbPolyline
 90
4
 70
0
 10
119.2441037735849
 20
-154.94850628930817
 10
119.2441037735849
 20
-134.22720125786162
 10
114.14347484276729
 20
-134.22720125786162
 10
114.14347484276729
 20
-113.50589622641509
  0
TEXT
  5
110
330
17
100
AcDbEntity
  8
HW_TEKST
420
3947580
100
AcDbText
 10
117.17197327044025
 20
-133.74901729559747
 30
0.0
 40
1.1157625786163523
  1
==12=006-W4654 signaal
100
AcDbText
  0
LWPOLYLINE
  5
111
330
17
100
AcDbEntity
  8
HW_VERBINDING
370
18
420
5263440
100
AcDbPolyline
 90
4
 70
0
 10
114.14347484276729
 20
-126.25746855345912
 10
114.14347484276729
 20
-179.33588836477986
 10
218.0687893081761
 20
-179.33588836477986
 10
218.0687893081761
 20
-232.41430817610063
  0
TEXT
  5
112
330
17
100
AcDbEntity
  8
HW_TEKST
420
3947580
100
AcDbText
 10
166.58431603773585
 20
-178.8577044025157
 30
0.0
 40
1.1157625786163523
  1
==07=031-W5209 signaal
100
AcDbText
  0
LWPOLYLINE
  5
113
330
17
100
AcDbEntity
  8
HW_VERBINDING
370
18
420
5263440
100
AcDbPolyline
 90
4
 70
0
 10
114.14347484276729
 20
-126.25746855345912
 10
114.14347484276729
 20
-179.33588836477986
 10
218.0687893081761
 20
-179.33588836477986
 10
218.0687893081761
 20
-232.41430817610063
  0
TEXT
  5
114
330
17
100
AcDbEntity
  8
HW_TEKST
420
3947580
100
AcDbText
 10
166.58431603773585
 20
-178.8577044025157
 30
0.0
 40
1.1157625786163523
  1
==07=031-W5210 signaal
100
AcDbText
  0
LWPOLYLINE
  5
115
330
17
100
AcDbEntity
  8
HW_VERBINDING
370
18
420
5263440
100
AcDbPolyline
 90
4
 70
0
 10
114.14347484276729
 20
-126.25746855345912
 10
114.14347484276729
 20
-179.33588836477986
 10
218.0687893081761
 20
-179.33588836477986
 10
218.0687893081761
 20
-232.41430817610063
  0
TEXT
  5
116
330
17
100
AcDbEntity
  8
HW_TEKST
420
3947580
100
AcDbText
 10
166.58431603773585
 20
-178.8577044025157
 30
0.0
 40
1.1157625786163523
  1
==07=031-W5211 signaal
100
AcDbText
  0
ENDSEC
  0
SECTION
  2
OBJECTS
  0
DICTIONARY
  5
A
330
0
100
AcDbDictionary
281
1
  3
ACAD_COLOR
350
B
  3
ACAD_GROUP
350
C
  3
ACAD_LAYOUT
350
D
  3
ACAD_MATERIAL
350
E
  3
ACAD_MLEADERSTYLE
350
F
  3
ACAD_MLINESTYLE
350
10
  3
ACAD_PLOTSETTINGS
350
11
  3
ACAD_PLOTSTYLENAME
350
12
  3
ACAD_SCALELIST
350
14
  3
ACAD_TABLESTYLE
350
15
  3
ACAD_VISUALSTYLE
350
16
  3
EZDXF_META
350
2D
  0
DICTIONARY
  5
B
330
A
100
AcDbDictionary
281
1
  0
DICTIONARY
  5
C
330
A
100
AcDbDictionary
281
1
  0
DICTIONARY
  5
D
330
A
100
AcDbDictionary
281
1
  3
Model
350
1A
  3
Layout1
350
1E
  0
DICTIONARY
  5
E
330
A
100
AcDbDictionary
281
1
  3
ByBlock
350
1F
  3
ByLayer
350
20
  3
Global
350
21
  0
DICTIONARY
  5
F
330
A
100
AcDbDictionary
281
1
  3
Standard
350
2C
  0
DICTIONARY
  5
10
330
A
100
AcDbDictionary
281
1
  3
Standard
350
22
  0
DICTIONARY
  5
11
330
A
100
AcDbDictionary
281
1
  0
ACDBDICTIONARYWDFLT
  5
12
330
A
100
AcDbDictionary
281
1
  3
Normal
350
13
100
AcDbDictionaryWithDefault
340
13
  0
ACDBPLACEHOLDER
  5
13
330
12
  0
DICTIONARY
  5
14
330
A
100
AcDbDictionary
281
1
  0
DICTIONARY
  5
15
330
A
100
AcDbDictionary
281
1
  0
DICTIONARY
  5
16
330
A
100
AcDbDictionary
281
1
  0
LAYOUT
  5
1A
330
D
100
AcDbPlotSettings
  1

  4
A3
  6

 40
7.5
 41
20.0
 42
7.5
 43
20.0
 44
420.0
 45
297.0
 46
0.0
 47
0.0
 48
0.0
 49
0.0
140
0.0
141
0.0
142
1.0
143
1.0
 70
1024
 72
1
 73
0
 74
5
  7

 75
16
 76
0
 77
2
 78
300
147
1.0
148
0.0
149
0.0
100
AcDbLayout
  1
Model
 70
1
 71
0
 10
0.0
 20
0.0
 11
420.0
 21
297.0
 12
0.0
 22
0.0
 32
0.0
 14
1e+20
 24
1e+20
 34
1e+20
 15
-1e+20
 25
-1e+20
 35
-1e+20
146
0.0
 13
0.0
 23
0.0
 33
0.0
 16
1.0
 26
0.0
 36
0.0
 17
0.0
 27
1.0
 37
0.0
 76
1
330
17
  0
LAYOUT
  5
1E
330
D
100
AcDbPlotSettings
  1

  4
A3
  6

 40
7.5
 41
20.0
 42
7.5
 43
20.0
 44
420.0
 45
297.0
 46
0.0
 47
0.0
 48
0.0
 49
0.0
140
0.0
141
0.0
142
1.0
143
1.0
 70
0
 72
1
 73
0
 74
5
  7

 75
16
 76
0
 77
2
 78
300
147
1.0
148
0.0
149
0.0
100
AcDbLayout
  1
Layout1
 70
1
 71
1
 10
0.0
 20
0.0
 11
420.0
 21
297.0
 12
0.0
 22
0.0
 32
0.0
 14
1e+20
 24
1e+20
 34
1e+20
 15
-1e+20
 25
-1e+20
 35
-1e+20
146
0.0
 13
0.0
 23
0.0
 33
0.0
 16
1.0
 26
0.0
 36
0.0
 17
0.0
 27
1.0
 37
0.0
 76
1
330
1B
  0
MATERIAL
  5
1F
102
{ACAD_REACTORS
330
E
102
}
330
E
100
AcDbMaterial
  1
ByBlock
  2

 70
0
 40
1.0
 71
1
 41
1.0
 91
-1023410177
 42
1.0
 72
1
  3

 73
1
 74
1
 75
1
 44
0.5
 73
0
 45
1.0
 46
1.0
 77
1
  4

 78
1
 79
1
170
1
 48
1.0
171
1
  6

172
1
173
1
174
1
140
1.0
141
1.0
175
1
  7

176
1
177
1
178
1
143
1.0
179
1
  8

270
1
271
1
272
1
145
1.0
146
1.0
273
1
  9

274
1
275
1
276
1
 42
1.0
 72
1
  3

 73
1
 74
1
 75
1
 94
63
  0
MATERIAL
  5
20
102
{ACAD_REACTORS
330
E
102
}
330
E
100
AcDbMaterial
  1
ByLayer
  2

 70
0
 40
1.0
 71
1
 41
1.0
 91
-1023410177
 42
1.0
 72
1
  3

 73
1
 74
1
 75
1
 44
0.5
 73
0
 45
1.0
 46
1.0
 77
1
  4

 78
1
 79
1
170
1
 48
1.0
171
1
  6

172
1
173
1
174
1
140
1.0
141
1.0
175
1
  7

176
1
177
1
178
1
143
1.0
179
1
  8

270
1
271
1
272
1
145
1.0
146
1.0
273
1
  9

274
1
275
1
276
1
 42
1.0
 72
1
  3

 73
1
 74
1
 75
1
 94
63
  0
MATERIAL
  5
21
102
{ACAD_REACTORS
330
E
102
}
330
E
100
AcDbMaterial
  1
Global
  2

 70
0
 40
1.0
 71
1
 41
1.0
 91
-1023410177
 42
1.0
 72
1
  3

 73
1
 74
1
 75
1
 44
0.5
 73
0
 45
1.0
 46
1.0
 77
1
  4

 78
1
 79
1
170
1
 48
1.0
171
1
  6

172
1
173
1
174
1
140
1.0
141
1.0
175
1
  7

176
1
177
1
178
1
143
1.0
179
1
  8

270
1
271
1
272
1
145
1.0
146
1.0
273
1
  9

274
1
275
1
276
1
 42
1.0
 72
1
  3

 73
1
 74
1
 75
1
 94
63
  0
MLINESTYLE
  5
22
102
{ACAD_REACTORS
330
10
102
}
330
10
100
AcDbMlineStyle
  2
Standard
 70
0
  3

 62
256
 51
90.0
 52
90.0
 71
2
 49
0.5
 62
256
  6
BYLAYER
 49
-0.5
 62
256
  6
BYLAYER
  0
MLEADERSTYLE
  5
2C
102
{ACAD_REACTORS
330
F
102
}
330
F
100
AcDbMLeaderStyle
179
2
170
2
171
1
172
0
 90
2
 40
0.0
 41
0.0
173
1
 91
-1056964608
 92
-2
290
1
 42
2.0
291
1
 43
8.0
  3
Standard
 44
4.0
300

342
29
174
1
175
1
176
0
178
1
 93
-1056964608
 45
4.0
292
0
297
0
 46
4.0
 94
-1056964608
 47
1.0
 49
1.0
140
1.0
294
1
141
0.0
177
0
142
1.0
295
0
296
0
143
3.75
271
0
272
9
273
9
  0
DICTIONARY
  5
2D
330
A
100
AcDbDictionary
280
1
281
1
  3
CREATED_BY_EZDXF
350
2E
  3
WRITTEN_BY_EZDXF
350
119
  0
DICTIONARYVAR
  5
2E
330
2D
100
DictionaryVariables
280
0
  1
1.4.4 @ 2026-06-28T08:40:05.774816+00:00
  0
DICTIONARYVAR
  5
119
330
2D
100
DictionaryVariables
280
0
  1
1.4.4 @ 2026-06-28T08:40:05.780720+00:00
  0
ENDSEC
  0
EOF
